<svg width="246" height="85" viewBox="0 0 246 85" fill="none" xmlns="http://www.w3.org/2000/svg">
<rect width="246" height="85" fill="#1E1E1E"/>
<rect x="-409" y="-621" width="1920" height="1080" fill="white"/>
<path d="M52 2.5H233C238.799 2.5 243.5 7.20102 243.5 13C243.5 40.3381 221.338 62.5 194 62.5H69C64.75 62.5 61.8279 65.9235 60.96 69.333C59.0325 76.9036 52.1667 82.5 44 82.5C35.8333 82.5 28.9675 76.9036 27.04 69.333C26.1721 65.9235 23.25 62.5 19 62.5H13C7.20101 62.5 2.5 57.799 2.5 52L2.50391 51.3604C2.84639 24.3171 24.8754 2.5 52 2.5Z" fill="#D9D9D9" stroke="black" stroke-width="5"/>
<path d="M88.7266 43V40.3984H91.9141C92.8359 40.3984 93.5508 40.1875 94.0586 39.7656C94.5664 39.3359 94.8203 38.7343 94.8203 37.9609C94.8203 37.1797 94.5547 36.5781 94.0234 36.1562C93.4922 35.7265 92.7344 35.5117 91.75 35.5117H88.7734L88.4922 34.3398H92.9219C94.4609 34.3398 95.6484 34.6953 96.4844 35.4062C97.3281 36.1172 97.75 37.125 97.75 38.4297C97.75 39.8828 97.3008 41.0078 96.4023 41.8047C95.5117 42.6015 94.2422 43 92.5938 43H88.7266ZM86.1016 43V26.3593H88.8906V43H86.1016ZM87.9297 34.8203V33.6718H92.6523V34.8203H87.9297ZM88.7266 34.082V32.9101H91.2109C92 32.9101 92.6016 32.7383 93.0156 32.3945C93.4375 32.0429 93.6484 31.5351 93.6484 30.8711C93.6484 30.2461 93.4258 29.7734 92.9805 29.4531C92.543 29.125 91.8984 28.9609 91.0469 28.9609H88.7734L88.4922 26.3593H91.1641C92.8906 26.3593 94.2227 26.7226 95.1602 27.4492C96.1055 28.1679 96.5781 29.1914 96.5781 30.5195C96.5781 31.6601 96.1797 32.539 95.3828 33.1562C94.5938 33.7734 93.4688 34.082 92.0078 34.082H88.7266ZM106.574 43.2343C104.441 43.2343 102.793 42.6797 101.629 41.5703C100.465 40.4531 99.8828 38.8515 99.8828 36.7656C99.8828 34.7343 100.375 33.1562 101.359 32.0312C102.352 30.9062 103.746 30.3437 105.543 30.3437C107.277 30.3437 108.617 30.8593 109.562 31.8906C110.516 32.9218 110.992 34.4179 110.992 36.3789C110.992 36.9492 110.969 37.4843 110.922 37.9843H101.969V35.8984H108.227C108.227 34.9531 107.992 34.2265 107.523 33.7187C107.055 33.2109 106.402 32.957 105.566 32.957C104.652 32.957 103.941 33.2773 103.434 33.9179C102.926 34.5586 102.672 35.4687 102.672 36.6484C102.672 37.9218 103.035 38.8945 103.762 39.5664C104.488 40.2304 105.52 40.5625 106.855 40.5625C107.402 40.5625 107.938 40.5351 108.461 40.4804C108.992 40.4179 109.531 40.3359 110.078 40.2343L110.383 42.9062C109.617 43.0468 108.914 43.1367 108.273 43.1758C107.633 43.2148 107.066 43.2343 106.574 43.2343ZM114.602 48.6015L114.484 46.0351L118.469 45.9179C119.625 45.8789 120.465 45.5547 120.988 44.9453C121.512 44.3437 121.777 43.4531 121.785 42.2734V33.2031L122.02 30.5781H124.68V41.8984C124.68 44.1093 124.164 45.7383 123.133 46.7851C122.109 47.8398 120.477 48.4062 118.234 48.4843L114.602 48.6015ZM118.387 43.2343C116.809 43.2343 115.594 42.6875 114.742 41.5937C113.898 40.5 113.477 38.9179 113.477 36.8476C113.477 34.7461 113.898 33.1367 114.742 32.0195C115.594 30.9023 116.812 30.3437 118.398 30.3437C119.352 30.3437 120.094 30.5547 120.625 30.9765C121.164 31.3984 121.496 32.0156 121.621 32.8281H122.559L121.785 36.625C121.785 35.3906 121.562 34.4765 121.117 33.8828C120.672 33.2812 120.012 32.9804 119.137 32.9804C118.27 32.9804 117.605 33.3125 117.145 33.9765C116.691 34.6406 116.465 35.5976 116.465 36.8476C116.465 38.082 116.691 39.0156 117.145 39.6484C117.598 40.2812 118.262 40.5976 119.137 40.5976C120.074 40.5976 120.75 40.3008 121.164 39.707C121.578 39.1133 121.785 38.1992 121.785 36.9648L122.629 40.75H121.539C121.43 41.5625 121.102 42.1797 120.555 42.6015C120.008 43.0234 119.285 43.2343 118.387 43.2343ZM132.941 43V31.2812H135.824V43H132.941ZM128.289 43V40.4218H133.176V43H128.289ZM135.59 43V40.4218H139.562V43H135.59ZM128.992 33.1562V30.5781H135.824V33.1562H128.992ZM134.266 28.7851C133.711 28.7851 133.254 28.6054 132.895 28.2461C132.535 27.8867 132.355 27.4297 132.355 26.875C132.355 26.3203 132.535 25.8633 132.895 25.5039C133.254 25.1445 133.711 24.9648 134.266 24.9648C134.82 24.9648 135.277 25.1445 135.637 25.5039C135.996 25.8633 136.176 26.3203 136.176 26.875C136.176 27.4297 135.996 27.8867 135.637 28.2461C135.277 28.6054 134.82 28.7851 134.266 28.7851ZM149.91 43V35.3828C149.91 34.6328 149.738 34.0547 149.395 33.6484C149.051 33.2422 148.566 33.039 147.941 33.039C146.207 33.039 145.34 34.1875 145.34 36.4843L144.613 32.8281H145.621C145.715 31.9922 146.004 31.3711 146.488 30.9648C146.98 30.5508 147.711 30.3437 148.68 30.3437C149.992 30.3437 151.008 30.7422 151.727 31.539C152.445 32.3359 152.805 33.4609 152.805 34.914V43H149.91ZM142.445 43V30.5781H145.047L145.34 33.2031V43H142.445Z" fill="black"/>
</svg>
