<svg width="246" height="85" viewBox="0 0 246 85" fill="none" xmlns="http://www.w3.org/2000/svg">
<rect width="246" height="85" fill="#1E1E1E"/>
<rect x="-418" y="-512" width="1920" height="1080" fill="white"/>
<path d="M52 2.5H178C179.273 2.5 180.7 3.62377 181.194 5.56641C183.672 15.2991 192.492 22.5 203 22.5C213.508 22.5 222.328 15.2991 224.806 5.56641C225.3 3.62377 226.727 2.5 228 2.5H233C238.799 2.5 243.5 7.20101 243.5 13C243.5 40.3381 221.338 62.5 194 62.5H69C64.75 62.5 61.8279 65.9235 60.96 69.333C59.0325 76.9036 52.1667 82.5 44 82.5C35.8333 82.5 28.9675 76.9036 27.04 69.333C26.1721 65.9235 23.25 62.5 19 62.5H13C7.20101 62.5 2.5 57.799 2.5 52C2.5 24.8754 24.317 2.84638 51.3604 2.50391L52 2.5Z" fill="#D9D9D9" stroke="black" stroke-width="5"/>
<path d="M58.9844 43.2344C53.7344 43.2344 51.1094 40.375 51.1094 34.6562C51.1094 31.9453 51.7695 29.8477 53.0898 28.3633C54.418 26.8711 56.2891 26.125 58.7031 26.125C59.8203 26.125 60.8047 26.3047 61.6562 26.6641C62.5078 27.0234 63.1445 27.5352 63.5664 28.1992L61.832 30.25C61.4805 29.7734 61.0312 29.4062 60.4844 29.1484C59.9453 28.8906 59.3594 28.7617 58.7266 28.7617C57.3203 28.7617 56.1914 29.2656 55.3398 30.2734C54.4883 31.2734 54.0625 32.6953 54.0625 34.5391C54.0625 38.5781 55.8359 40.5977 59.3828 40.5977C60.5156 40.5977 61.6328 40.3633 62.7344 39.8945L63.2734 42.4375C61.9141 42.9688 60.4844 43.2344 58.9844 43.2344ZM65.043 48.625L64.9258 46.082L66.9883 45.8477C67.7539 45.7539 68.4102 45.5469 68.957 45.2266C69.5039 44.9062 69.9727 44.4297 70.3633 43.7969C70.7539 43.1641 71.0938 42.3359 71.3828 41.3125L74.418 30.5781H77.4648L73.9375 41.8984C73.4688 43.3906 72.9336 44.5898 72.332 45.4961C71.7383 46.4023 71.0312 47.082 70.2109 47.5352C69.3906 47.9883 68.4102 48.2734 67.2695 48.3906L65.043 48.625ZM69.2852 43L64.8086 30.5781H67.8555L71.3242 40.6328H71.8164V43H69.2852ZM86.7227 43.2344C84.5195 43.2344 82.8164 42.6797 81.6133 41.5703C80.418 40.4531 79.8203 38.8516 79.8203 36.7656C79.8203 34.7344 80.375 33.1562 81.4844 32.0312C82.5938 30.9062 84.1797 30.3438 86.2422 30.3438C87.5 30.3438 88.5742 30.5859 89.4648 31.0703C90.3633 31.5469 91 32.2227 91.375 33.0977L89.2305 34.7734C88.8867 34.2188 88.4453 33.793 87.9062 33.4961C87.375 33.1914 86.7891 33.0391 86.1484 33.0391C85.0859 33.0391 84.2578 33.3516 83.6641 33.9766C83.0703 34.6016 82.7734 35.4922 82.7734 36.6484C82.7734 37.9141 83.1367 38.8789 83.8633 39.543C84.5977 40.207 85.6445 40.5391 87.0039 40.5391C87.5742 40.5391 88.1406 40.5117 88.7031 40.457C89.2734 40.4023 89.8281 40.3281 90.3672 40.2344L90.6719 42.8828C90.0391 43.0234 89.3828 43.1172 88.7031 43.1641C88.0234 43.2109 87.3633 43.2344 86.7227 43.2344ZM101.289 43.2344C99.7734 43.2344 98.6797 42.8203 98.0078 41.9922C97.3438 41.1641 97.0117 39.8398 97.0117 38.0195V25.4219H99.8945V37.9023C99.8945 38.4727 99.9531 38.9414 100.07 39.3086C100.188 39.668 100.41 39.9336 100.738 40.1055C101.074 40.2773 101.57 40.3633 102.227 40.3633C102.898 40.3633 103.75 40.2148 104.781 39.918L105.109 42.7422C104.461 42.9141 103.832 43.0391 103.223 43.1172C102.621 43.1953 101.977 43.2344 101.289 43.2344ZM93.4375 28.0469V25.4219H97.2227V28.0469H93.4375ZM114.52 43.2344C112.387 43.2344 110.738 42.6797 109.574 41.5703C108.41 40.4531 107.828 38.8516 107.828 36.7656C107.828 34.7344 108.32 33.1562 109.305 32.0312C110.297 30.9062 111.691 30.3438 113.488 30.3438C115.223 30.3438 116.562 30.8594 117.508 31.8906C118.461 32.9219 118.938 34.418 118.938 36.3789C118.938 36.9492 118.914 37.4844 118.867 37.9844H109.914V35.8984H116.172C116.172 34.9531 115.938 34.2266 115.469 33.7188C115 33.2109 114.348 32.957 113.512 32.957C112.598 32.957 111.887 33.2773 111.379 33.918C110.871 34.5586 110.617 35.4688 110.617 36.6484C110.617 37.9219 110.98 38.8945 111.707 39.5664C112.434 40.2305 113.465 40.5625 114.801 40.5625C115.348 40.5625 115.883 40.5352 116.406 40.4805C116.938 40.418 117.477 40.3359 118.023 40.2344L118.328 42.9062C117.562 43.0469 116.859 43.1367 116.219 43.1758C115.578 43.2148 115.012 43.2344 114.52 43.2344ZM142.645 43.2344C140.512 43.2344 138.863 42.6797 137.699 41.5703C136.535 40.4531 135.953 38.8516 135.953 36.7656C135.953 34.7344 136.445 33.1562 137.43 32.0312C138.422 30.9062 139.816 30.3438 141.613 30.3438C143.348 30.3438 144.688 30.8594 145.633 31.8906C146.586 32.9219 147.062 34.418 147.062 36.3789C147.062 36.9492 147.039 37.4844 146.992 37.9844H138.039V35.8984H144.297C144.297 34.9531 144.062 34.2266 143.594 33.7188C143.125 33.2109 142.473 32.957 141.637 32.957C140.723 32.957 140.012 33.2773 139.504 33.918C138.996 34.5586 138.742 35.4688 138.742 36.6484C138.742 37.9219 139.105 38.8945 139.832 39.5664C140.559 40.2305 141.59 40.5625 142.926 40.5625C143.473 40.5625 144.008 40.5352 144.531 40.4805C145.062 40.418 145.602 40.3359 146.148 40.2344L146.453 42.9062C145.688 43.0469 144.984 43.1367 144.344 43.1758C143.703 43.2148 143.137 43.2344 142.645 43.2344ZM157.973 43V35.3828C157.973 34.6328 157.801 34.0547 157.457 33.6484C157.113 33.2422 156.629 33.0391 156.004 33.0391C154.27 33.0391 153.402 34.1875 153.402 36.4844L152.676 32.8281H153.684C153.777 31.9922 154.066 31.3711 154.551 30.9648C155.043 30.5508 155.773 30.3438 156.742 30.3438C158.055 30.3438 159.07 30.7422 159.789 31.5391C160.508 32.3359 160.867 33.4609 160.867 34.9141V43H157.973ZM150.508 43V30.5781H153.109L153.402 33.2031V43H150.508ZM168.637 43.2344C167.059 43.2344 165.844 42.6875 164.992 41.5938C164.148 40.5 163.727 38.918 163.727 36.8477C163.727 34.7461 164.148 33.1367 164.992 32.0195C165.844 30.9023 167.062 30.3438 168.648 30.3438C169.562 30.3438 170.277 30.5547 170.793 30.9766C171.309 31.3984 171.629 32.0156 171.754 32.8281H172.762L172.035 36.625C172.035 35.3906 171.812 34.4766 171.367 33.8828C170.922 33.2812 170.262 32.9805 169.387 32.9805C168.504 32.9805 167.828 33.3125 167.359 33.9766C166.891 34.6406 166.656 35.5977 166.656 36.8477C166.656 38.082 166.887 39.0156 167.348 39.6484C167.809 40.2812 168.488 40.5977 169.387 40.5977C170.324 40.5977 171 40.3008 171.414 39.707C171.828 39.1133 172.035 38.1992 172.035 36.9648L172.879 40.75H171.789C171.68 41.5625 171.352 42.1797 170.805 42.6016C170.258 43.0234 169.535 43.2344 168.637 43.2344ZM172.41 43.1172L172.035 40.668V25.4219H174.93V43L172.41 43.1172Z" fill="black"/>
</svg>
