<svg width="246" height="148" viewBox="0 0 246 148" fill="none" xmlns="http://www.w3.org/2000/svg">
<rect width="246" height="148" fill="#1E1E1E"/>
<rect x="-1024" y="-321" width="1920" height="1080" fill="white"/>
<path d="M15 2.5H19C20.2728 2.5 21.6998 3.62377 22.1943 5.56641C24.6722 15.2991 33.4921 22.5 44 22.5C54.5079 22.5 63.3278 15.2991 65.8057 5.56641C66.3002 3.62377 67.7272 2.5 69 2.5H186C217.756 2.5 243.5 28.2436 243.5 60V113C243.5 119.898 237.885 125.5 230.977 125.5H228C223.75 125.5 220.828 128.924 219.96 132.333C218.032 139.904 211.167 145.5 203 145.5C194.833 145.5 187.968 139.904 186.04 132.333C185.172 128.924 182.25 125.5 178 125.5H60.0137C28.2566 125.5 2.5 99.7556 2.5 68V15C2.5 8.20418 7.92311 2.67484 14.6777 2.50391L15 2.5Z" fill="#D9D9D9" stroke="black" stroke-width="5"/>
<path d="M125.93 22.0977C124.191 22.0977 123.322 20.9258 123.322 18.582C123.322 16.1732 124.191 14.9688 125.93 14.9688C127.668 14.9688 128.537 16.1732 128.537 18.582C128.537 20.9258 127.668 22.0977 125.93 22.0977ZM125.93 20.999C126.848 20.999 127.307 20.1934 127.307 18.582C127.307 16.9056 126.848 16.0674 125.93 16.0674C125.012 16.0674 124.553 16.9056 124.553 18.582C124.553 20.1934 125.012 20.999 125.93 20.999ZM129.631 24.2461V16.8242H130.739L130.837 17.918V24.2461H129.631ZM132.253 22.0977C131.879 22.0977 131.577 22.0098 131.35 21.834C131.122 21.6582 130.985 21.401 130.939 21.0625H130.485L130.837 19.4854C130.837 19.9997 130.923 20.3805 131.096 20.6279C131.271 20.8753 131.553 20.999 131.94 20.999C132.315 20.999 132.598 20.8672 132.79 20.6035C132.982 20.3398 133.078 19.9508 133.078 19.4365C133.078 18.9157 132.98 18.5169 132.785 18.2402C132.59 17.9635 132.308 17.8252 131.94 17.8252C131.576 17.8252 131.301 17.9505 131.115 18.2012C130.93 18.4486 130.837 18.8294 130.837 19.3438L130.515 17.7617H130.905C130.961 17.4232 131.099 17.166 131.32 16.9902C131.542 16.8145 131.851 16.7266 132.248 16.7266C132.909 16.7266 133.415 16.9593 133.767 17.4248C134.121 17.8903 134.299 18.5609 134.299 19.4365C134.299 20.2992 134.121 20.9583 133.767 21.4141C133.415 21.8698 132.91 22.0977 132.253 22.0977ZM138.073 22.0977C137.185 22.0977 136.498 21.8665 136.013 21.4043C135.528 20.9388 135.285 20.2715 135.285 19.4023C135.285 18.556 135.49 17.8984 135.9 17.4297C136.314 16.9609 136.895 16.7266 137.644 16.7266C138.366 16.7266 138.924 16.9414 139.318 17.3711C139.715 17.8008 139.914 18.4242 139.914 19.2412C139.914 19.4788 139.904 19.7018 139.885 19.9102H136.154V19.041H138.762C138.762 18.6471 138.664 18.3444 138.469 18.1328C138.273 17.9212 138.002 17.8154 137.653 17.8154C137.272 17.8154 136.976 17.9489 136.765 18.2158C136.553 18.4827 136.447 18.862 136.447 19.3535C136.447 19.8841 136.599 20.2894 136.901 20.5693C137.204 20.846 137.634 20.9844 138.19 20.9844C138.418 20.9844 138.641 20.973 138.859 20.9502C139.081 20.9242 139.305 20.89 139.533 20.8477L139.66 21.9609C139.341 22.0195 139.048 22.057 138.781 22.0732C138.514 22.0895 138.278 22.0977 138.073 22.0977ZM143.239 19.7734L142.937 18.0547H143.366C143.422 17.1693 143.876 16.7266 144.729 16.7266C145.236 16.7266 145.617 16.8958 145.871 17.2344C146.125 17.5729 146.252 18.084 146.252 18.7676H145.051C145.051 18.4323 144.994 18.1914 144.88 18.0449C144.769 17.8984 144.59 17.8252 144.343 17.8252C143.972 17.8252 143.695 17.9945 143.513 18.333C143.33 18.6715 143.239 19.1517 143.239 19.7734ZM140.92 22V20.9551H144.475V22H140.92ZM142.038 22V16.8242H143.044L143.239 18.3086V22H142.038ZM141.115 17.8691V16.8242H142.976L143.073 17.8691H141.115ZM150.363 22.0488L150.271 20.5156L150.202 19.9395V18.7969C150.202 18.4941 150.083 18.2728 149.846 18.1328C149.608 17.9896 149.253 17.9115 148.781 17.8984L147.492 17.8643L147.59 16.7754L148.684 16.79C149.589 16.8031 150.261 16.9886 150.7 17.3467C151.14 17.7015 151.359 18.2207 151.359 18.9043V20.916L152.141 21.0234V22L150.363 22.0488ZM148.581 22.0977C148.034 22.0977 147.609 21.9642 147.307 21.6973C147.007 21.4303 146.857 21.0527 146.857 20.5645C146.857 19.998 147.059 19.5635 147.463 19.2607C147.867 18.958 148.438 18.8066 149.177 18.8066C149.47 18.8066 149.727 18.8229 149.948 18.8555C150.17 18.888 150.381 18.9385 150.583 19.0068L150.368 19.9053C150.157 19.8564 149.96 19.8288 149.777 19.8223C149.595 19.8125 149.405 19.8076 149.206 19.8076C148.438 19.8076 148.054 20.0339 148.054 20.4863C148.054 20.6849 148.12 20.8363 148.254 20.9404C148.391 21.0446 148.588 21.0967 148.845 21.0967C149.144 21.0967 149.395 21.043 149.597 20.9355C149.799 20.8249 149.95 20.6865 150.051 20.5205C150.152 20.3512 150.202 20.1771 150.202 19.998V19.5781L150.437 20.9062H150.021L150.192 20.75C150.186 21.0495 150.116 21.3001 149.982 21.502C149.852 21.7005 149.668 21.8503 149.431 21.9512C149.193 22.0488 148.91 22.0977 148.581 22.0977ZM156.262 22.0977C155.412 22.0977 154.799 21.9251 154.421 21.5801C154.043 21.235 153.854 20.6833 153.854 19.9248V19.168H155.056V19.8271C155.056 20.2275 155.157 20.5189 155.358 20.7012C155.563 20.8835 155.897 20.9746 156.359 20.9746C156.512 20.9746 156.677 20.9665 156.853 20.9502C157.028 20.9307 157.229 20.9062 157.453 20.877L157.57 21.9805C157.352 22.0195 157.137 22.0488 156.926 22.0684C156.717 22.0879 156.496 22.0977 156.262 22.0977ZM153.854 19.5098V15.2617H155.056V19.5098H153.854ZM152.59 17.918V16.8242H157.375V17.918H152.59ZM160.827 22V17.1172H162.028V22H160.827ZM158.889 22V20.9062H160.925V22H158.889ZM161.931 22V20.9062H163.586V22H161.931ZM159.182 17.918V16.8242H162.028V17.918H159.182ZM161.379 16.0771C161.148 16.0771 160.957 16.0023 160.808 15.8525C160.658 15.7028 160.583 15.5124 160.583 15.2812C160.583 15.0501 160.658 14.8597 160.808 14.71C160.957 14.5602 161.148 14.4854 161.379 14.4854C161.61 14.4854 161.8 14.5602 161.95 14.71C162.1 14.8597 162.175 15.0501 162.175 15.2812C162.175 15.5124 162.1 15.7028 161.95 15.8525C161.8 16.0023 161.61 16.0771 161.379 16.0771ZM166.945 22.0977C166.213 22.0977 165.643 21.8633 165.236 21.3945C164.833 20.9258 164.631 20.265 164.631 19.4121C164.631 18.556 164.833 17.8952 165.236 17.4297C165.643 16.9609 166.213 16.7266 166.945 16.7266C167.681 16.7266 168.251 16.9609 168.654 17.4297C169.058 17.8952 169.26 18.556 169.26 19.4121C169.26 20.265 169.058 20.9258 168.654 21.3945C168.251 21.8633 167.681 22.0977 166.945 22.0977ZM166.945 20.9746C167.29 20.9746 167.556 20.8395 167.741 20.5693C167.927 20.2959 168.02 19.9102 168.02 19.4121C168.02 18.9108 167.925 18.5251 167.736 18.2549C167.551 17.9847 167.287 17.8496 166.945 17.8496C166.604 17.8496 166.338 17.9847 166.149 18.2549C165.964 18.5251 165.871 18.9108 165.871 19.4121C165.871 19.9102 165.964 20.2959 166.149 20.5693C166.338 20.8395 166.604 20.9746 166.945 20.9746ZM173.757 22V18.8262C173.757 18.5137 173.685 18.2728 173.542 18.1035C173.399 17.9342 173.197 17.8496 172.937 17.8496C172.214 17.8496 171.853 18.3281 171.853 19.2852L171.55 17.7617H171.97C172.009 17.4134 172.129 17.1546 172.331 16.9854C172.536 16.8128 172.84 16.7266 173.244 16.7266C173.791 16.7266 174.214 16.8926 174.514 17.2246C174.813 17.5566 174.963 18.0254 174.963 18.6309V22H173.757ZM170.646 22V16.8242H171.73L171.853 17.918V22H170.646ZM185.559 22.0977C184.709 22.0977 184.095 21.9251 183.718 21.5801C183.34 21.235 183.151 20.6833 183.151 19.9248V19.168H184.353V19.8271C184.353 20.2275 184.453 20.5189 184.655 20.7012C184.86 20.8835 185.194 20.9746 185.656 20.9746C185.809 20.9746 185.974 20.9665 186.149 20.9502C186.325 20.9307 186.525 20.9062 186.75 20.877L186.867 21.9805C186.649 22.0195 186.434 22.0488 186.223 22.0684C186.014 22.0879 185.793 22.0977 185.559 22.0977ZM183.151 19.5098V15.2617H184.353V19.5098H183.151ZM181.887 17.918V16.8242H186.672V17.918H181.887ZM187.771 24.3438L187.722 23.2842L188.581 23.1865C188.9 23.1475 189.174 23.0612 189.401 22.9277C189.629 22.7943 189.825 22.5957 189.987 22.332C190.15 22.0684 190.292 21.7233 190.412 21.2969L191.677 16.8242H192.946L191.477 21.541C191.281 22.1628 191.058 22.6624 190.808 23.04C190.56 23.4176 190.266 23.7008 189.924 23.8896C189.582 24.0785 189.174 24.1973 188.698 24.2461L187.771 24.3438ZM189.538 22L187.673 16.8242H188.942L190.388 21.0137H190.593V22H189.538ZM194.084 24.2461V16.8242H195.192L195.29 17.918V24.2461H194.084ZM196.706 22.0977C196.332 22.0977 196.031 22.0098 195.803 21.834C195.575 21.6582 195.438 21.401 195.393 21.0625H194.938L195.29 19.4854C195.29 19.9997 195.376 20.3805 195.549 20.6279C195.725 20.8753 196.006 20.999 196.394 20.999C196.768 20.999 197.051 20.8672 197.243 20.6035C197.435 20.3398 197.531 19.9508 197.531 19.4365C197.531 18.9157 197.434 18.5169 197.238 18.2402C197.043 17.9635 196.761 17.8252 196.394 17.8252C196.029 17.8252 195.754 17.9505 195.568 18.2012C195.383 18.4486 195.29 18.8294 195.29 19.3438L194.968 17.7617H195.358C195.414 17.4232 195.552 17.166 195.773 16.9902C195.995 16.8145 196.304 16.7266 196.701 16.7266C197.362 16.7266 197.868 16.9593 198.22 17.4248C198.575 17.8903 198.752 18.5609 198.752 19.4365C198.752 20.2992 198.575 20.9583 198.22 21.4141C197.868 21.8698 197.364 22.0977 196.706 22.0977ZM202.526 22.0977C201.638 22.0977 200.951 21.8665 200.466 21.4043C199.981 20.9388 199.738 20.2715 199.738 19.4023C199.738 18.556 199.943 17.8984 200.354 17.4297C200.767 16.9609 201.348 16.7266 202.097 16.7266C202.819 16.7266 203.378 16.9414 203.771 17.3711C204.169 17.8008 204.367 18.4242 204.367 19.2412C204.367 19.4788 204.357 19.7018 204.338 19.9102H200.607V19.041H203.215C203.215 18.6471 203.117 18.3444 202.922 18.1328C202.727 17.9212 202.455 17.8154 202.106 17.8154C201.726 17.8154 201.429 17.9489 201.218 18.2158C201.006 18.4827 200.9 18.862 200.9 19.3535C200.9 19.8841 201.052 20.2894 201.354 20.5693C201.657 20.846 202.087 20.9844 202.644 20.9844C202.871 20.9844 203.094 20.973 203.312 20.9502C203.534 20.9242 203.758 20.89 203.986 20.8477L204.113 21.9609C203.794 22.0195 203.501 22.057 203.234 22.0732C202.967 22.0895 202.731 22.0977 202.526 22.0977Z" fill="black"/>
<rect x="124" y="25" width="80" height="23" rx="3" fill="#D9D9D9" stroke="black" stroke-width="2"/>
<path d="M128.732 40V33.0664H129.909V40H128.732ZM128.732 40V38.916H133.42V40H128.732ZM128.732 37.0703V35.9863H132.541V37.0703H128.732ZM128.732 34.1504V33.0664H133.42V34.1504H128.732ZM137.561 40.0977C136.929 40.0977 136.473 39.9251 136.193 39.5801C135.917 39.235 135.778 38.6833 135.778 37.9248V32.6758H136.979V37.876C136.979 38.1136 137.004 38.3089 137.053 38.4619C137.102 38.6117 137.194 38.7223 137.331 38.7939C137.471 38.8656 137.678 38.9014 137.951 38.9014C138.231 38.9014 138.586 38.8395 139.016 38.7158L139.152 39.8926C138.882 39.9642 138.62 40.0163 138.366 40.0488C138.116 40.0814 137.847 40.0977 137.561 40.0977ZM134.289 33.7695V32.6758H135.866V33.7695H134.289ZM142.248 40.0977C141.854 40.0977 141.511 40.0846 141.218 40.0586C140.925 40.0358 140.663 40 140.432 39.9512L140.573 38.8184C140.954 38.8704 141.281 38.9095 141.555 38.9355C141.828 38.9616 142.059 38.9746 142.248 38.9746C142.723 38.9746 143.067 38.9355 143.278 38.8574C143.493 38.7793 143.601 38.6556 143.601 38.4863C143.601 38.3789 143.57 38.2959 143.508 38.2373C143.446 38.1787 143.348 38.1315 143.215 38.0957L141.726 37.6807C141.315 37.5667 141.009 37.4105 140.808 37.2119C140.609 37.0101 140.51 36.7269 140.51 36.3623C140.51 35.8024 140.736 35.3906 141.188 35.127C141.644 34.86 142.352 34.7266 143.312 34.7266C143.547 34.7266 143.778 34.7347 144.006 34.751C144.237 34.7673 144.478 34.7917 144.729 34.8242L144.602 35.918C144.318 35.8919 144.069 35.874 143.854 35.8643C143.643 35.8545 143.452 35.8496 143.283 35.8496C142.746 35.8496 142.355 35.887 142.111 35.9619C141.87 36.0368 141.75 36.1572 141.75 36.3232C141.75 36.4339 141.786 36.5153 141.857 36.5674C141.929 36.6195 142.04 36.665 142.189 36.7041L143.439 37.041C143.924 37.1647 144.283 37.3389 144.514 37.5635C144.748 37.7881 144.865 38.0941 144.865 38.4814C144.865 39.0348 144.652 39.4434 144.226 39.707C143.802 39.9674 143.143 40.0977 142.248 40.0977ZM148.933 40.0977C148.044 40.0977 147.357 39.8665 146.872 39.4043C146.387 38.9388 146.145 38.2715 146.145 37.4023C146.145 36.556 146.35 35.8984 146.76 35.4297C147.173 34.9609 147.754 34.7266 148.503 34.7266C149.226 34.7266 149.784 34.9414 150.178 35.3711C150.575 35.8008 150.773 36.4242 150.773 37.2412C150.773 37.4788 150.764 37.7018 150.744 37.9102H147.014V37.041H149.621C149.621 36.6471 149.523 36.3444 149.328 36.1328C149.133 35.9212 148.861 35.8154 148.513 35.8154C148.132 35.8154 147.836 35.9489 147.624 36.2158C147.412 36.4827 147.307 36.862 147.307 37.3535C147.307 37.8841 147.458 38.2894 147.761 38.5693C148.063 38.846 148.493 38.9844 149.05 38.9844C149.278 38.9844 149.501 38.973 149.719 38.9502C149.94 38.9242 150.165 38.89 150.393 38.8477L150.52 39.9609C150.201 40.0195 149.908 40.057 149.641 40.0732C149.374 40.0895 149.138 40.0977 148.933 40.0977Z" fill="black"/>
<path d="M196.567 39.25C196.76 39.5831 197.24 39.5831 197.433 39.25L200.031 34.75C200.224 34.4167 199.983 34 199.598 34H194.402C194.017 34 193.776 34.4167 193.969 34.75L196.567 39.25Z" fill="#D9D9D9" stroke="black"/>
</svg>
