<svg width="246" height="65" viewBox="0 0 246 65" fill="none" xmlns="http://www.w3.org/2000/svg">
<rect width="246" height="65" fill="#1E1E1E"/>
<rect x="-669" y="-512" width="1920" height="1080" fill="white"/>
<path d="M52 2.5H178C179.273 2.5 180.7 3.62378 181.194 5.56641C183.672 15.2991 192.492 22.5 203 22.5C213.508 22.5 222.328 15.2991 224.806 5.56641C225.3 3.62377 226.727 2.5 228 2.5H233C238.799 2.5 243.5 7.20101 243.5 13C243.5 40.3381 221.338 62.5 194 62.5V65C194 62.5823 194 62.5026 193.999 62.5H13C7.20101 62.5 2.5 57.799 2.5 52C2.5 24.8754 24.317 2.84638 51.3604 2.50391L52 2.5Z" fill="#D9D9D9" stroke="black" stroke-width="5"/>
<path d="M94.1641 43V26.3594H96.9531V43H94.1641ZM94.1641 43V40.3984H105.414V43H94.1641ZM94.1641 35.9688V33.3672H103.305V35.9688H94.1641ZM94.1641 28.9609V26.3594H105.414V28.9609H94.1641ZM115.785 43V35.3828C115.785 34.6328 115.613 34.0547 115.27 33.6484C114.926 33.2422 114.441 33.0391 113.816 33.0391C112.082 33.0391 111.215 34.1875 111.215 36.4844L110.488 32.8281H111.496C111.59 31.9922 111.879 31.3711 112.363 30.9648C112.855 30.5508 113.586 30.3438 114.555 30.3438C115.867 30.3438 116.883 30.7422 117.602 31.5391C118.32 32.3359 118.68 33.4609 118.68 34.9141V43H115.785ZM108.32 43V30.5781H110.922L111.215 33.2031V43H108.32ZM126.449 43.2344C124.871 43.2344 123.656 42.6875 122.805 41.5938C121.961 40.5 121.539 38.918 121.539 36.8477C121.539 34.7461 121.961 33.1367 122.805 32.0195C123.656 30.9023 124.875 30.3438 126.461 30.3438C127.375 30.3438 128.09 30.5547 128.605 30.9766C129.121 31.3984 129.441 32.0156 129.566 32.8281H130.574L129.848 36.625C129.848 35.3906 129.625 34.4766 129.18 33.8828C128.734 33.2812 128.074 32.9805 127.199 32.9805C126.332 32.9805 125.668 33.3125 125.207 33.9766C124.754 34.6406 124.527 35.5977 124.527 36.8477C124.527 38.082 124.754 39.0156 125.207 39.6484C125.66 40.2812 126.324 40.5977 127.199 40.5977C128.137 40.5977 128.812 40.3008 129.227 39.707C129.641 39.1133 129.848 38.1992 129.848 36.9648L130.691 40.75H129.602C129.492 41.5625 129.164 42.1797 128.617 42.6016C128.07 43.0234 127.348 43.2344 126.449 43.2344ZM130.223 43.1172L129.848 40.668V25.4219H132.742V43L130.223 43.1172Z" fill="black"/>
</svg>
