<svg width="246" height="148" viewBox="0 0 246 148" fill="none" xmlns="http://www.w3.org/2000/svg">
<rect width="246" height="148" fill="#1E1E1E"/>
<rect x="-712" y="-159" width="1920" height="1080" fill="white"/>
<path d="M15 2.5H19C20.2728 2.5 21.6998 3.62377 22.1943 5.56641C24.6722 15.2991 33.4921 22.5 44 22.5C54.5079 22.5 63.3278 15.2991 65.8057 5.56641C66.3002 3.62378 67.7272 2.5 69 2.5H186C217.756 2.5 243.5 28.2436 243.5 60V113C243.5 119.898 237.885 125.5 230.977 125.5H228C223.75 125.5 220.828 128.924 219.96 132.333C218.032 139.904 211.167 145.5 203 145.5C194.833 145.5 187.968 139.904 186.04 132.333C185.172 128.924 182.25 125.5 178 125.5H60.0137C28.2566 125.5 2.5 99.7556 2.5 68V15C2.5 8.20418 7.92311 2.67484 14.6777 2.50391L15 2.5Z" fill="#D9D9D9" stroke="black" stroke-width="5"/>
<path d="M27.5 69H118.5C120.157 69 121.5 70.3431 121.5 72V89C121.5 90.6569 120.157 92 118.5 92H27.5C25.8431 92 24.5 90.6569 24.5 89V72C24.5 70.3431 25.8431 69 27.5 69Z" fill="#D9D9D9" stroke="black" stroke-width="2"/>
<path d="M26.501 66L24.9727 60.6387H24.4697V59.0664H25.3584L26.8867 64.4277H27.1846V66H26.501ZM23.6738 66V59.0664H24.8213V66H23.6738ZM27.0381 66V59.0664H28.1855V66H27.0381ZM32.7852 66.0488L32.6924 64.5156L32.624 63.9395V62.7969C32.624 62.4941 32.5052 62.2728 32.2676 62.1328C32.0299 61.9896 31.6751 61.9115 31.2031 61.8984L29.9141 61.8643L30.0117 60.7754L31.1055 60.79C32.0104 60.8031 32.6826 60.9886 33.1221 61.3467C33.5615 61.7015 33.7812 62.2207 33.7812 62.9043V64.916L34.5625 65.0234V66L32.7852 66.0488ZM31.0029 66.0977C30.4561 66.0977 30.0312 65.9642 29.7285 65.6973C29.429 65.4303 29.2793 65.0527 29.2793 64.5645C29.2793 63.998 29.4811 63.5635 29.8848 63.2607C30.2884 62.958 30.8597 62.8066 31.5986 62.8066C31.8916 62.8066 32.1488 62.8229 32.3701 62.8555C32.5915 62.888 32.8031 62.9385 33.0049 63.0068L32.79 63.9053C32.5785 63.8564 32.3815 63.8288 32.1992 63.8223C32.0169 63.8125 31.8265 63.8076 31.6279 63.8076C30.8597 63.8076 30.4756 64.0339 30.4756 64.4863C30.4756 64.6849 30.5423 64.8363 30.6758 64.9404C30.8125 65.0446 31.0094 65.0967 31.2666 65.0967C31.5661 65.0967 31.8167 65.043 32.0186 64.9355C32.2204 64.8249 32.3717 64.6865 32.4727 64.5205C32.5736 64.3512 32.624 64.1771 32.624 63.998V63.5781L32.8584 64.9062H32.4434L32.6143 64.75C32.6077 65.0495 32.5378 65.3001 32.4043 65.502C32.2741 65.7005 32.0902 65.8503 31.8525 65.9512C31.6149 66.0488 31.3317 66.0977 31.0029 66.0977ZM38.8887 66V62.3135C38.8887 61.9554 38.7731 61.7764 38.542 61.7764C38.2653 61.7764 38.127 61.9863 38.127 62.4062L37.7754 61.4688H38.2002C38.223 61.2507 38.3076 61.0732 38.4541 60.9365C38.6038 60.7965 38.8089 60.7266 39.0693 60.7266C39.4209 60.7266 39.6764 60.8226 39.8359 61.0146C39.9987 61.2067 40.0801 61.5176 40.0801 61.9473V66H38.8887ZM35.2168 66V60.8242H36.2959L36.4131 61.918V66H35.2168ZM37.1846 66V62.2158C37.1846 61.9229 37.0674 61.7764 36.833 61.7764C36.5531 61.7764 36.4131 61.9863 36.4131 62.4062L36.1104 61.4688H36.4668C36.5254 60.974 36.8005 60.7266 37.292 60.7266C37.5524 60.7266 37.7559 60.8193 37.9023 61.0049C38.0521 61.1904 38.127 61.472 38.127 61.8496V66H37.1846ZM43.9326 66.0977C43.0439 66.0977 42.3571 65.8665 41.8721 65.4043C41.387 64.9388 41.1445 64.2715 41.1445 63.4023C41.1445 62.556 41.3496 61.8984 41.7598 61.4297C42.1732 60.9609 42.7542 60.7266 43.5029 60.7266C44.2256 60.7266 44.7839 60.9414 45.1777 61.3711C45.5749 61.8008 45.7734 62.4242 45.7734 63.2412C45.7734 63.4788 45.7637 63.7018 45.7441 63.9102H42.0137V63.041H44.6211C44.6211 62.6471 44.5234 62.3444 44.3281 62.1328C44.1328 61.9212 43.861 61.8154 43.5127 61.8154C43.1318 61.8154 42.8356 61.9489 42.624 62.2158C42.4124 62.4827 42.3066 62.862 42.3066 63.3535C42.3066 63.8841 42.458 64.2894 42.7607 64.5693C43.0635 64.846 43.4932 64.9844 44.0498 64.9844C44.2777 64.9844 44.5007 64.973 44.7188 64.9502C44.9401 64.9242 45.1647 64.89 45.3926 64.8477L45.5195 65.9609C45.2005 66.0195 44.9076 66.057 44.6406 66.0732C44.3737 66.0895 44.1377 66.0977 43.9326 66.0977Z" fill="black"/>
<path d="M144.5 69H207.5C209.157 69 210.5 70.3431 210.5 72V89C210.5 90.6569 209.157 92 207.5 92H144.5C142.843 92 141.5 90.6569 141.5 89V72C141.5 70.3431 142.843 69 144.5 69Z" fill="#D9D9D9" stroke="black" stroke-width="2"/>
<path d="M143.671 66V61.1172H144.872V66H143.671ZM141.732 66V64.9062H143.769V66H141.732ZM144.774 66V64.9062H146.43V66H144.774ZM142.025 61.918V60.8242H144.872V61.918H142.025ZM144.223 60.0771C143.992 60.0771 143.801 60.0023 143.651 59.8525C143.502 59.7028 143.427 59.5124 143.427 59.2812C143.427 59.0501 143.502 58.8597 143.651 58.71C143.801 58.5602 143.992 58.4854 144.223 58.4854C144.454 58.4854 144.644 58.5602 144.794 58.71C144.944 58.8597 145.019 59.0501 145.019 59.2812C145.019 59.5124 144.944 59.7028 144.794 59.8525C144.644 60.0023 144.454 60.0771 144.223 60.0771ZM150.741 66V62.8262C150.741 62.5137 150.67 62.2728 150.526 62.1035C150.383 61.9342 150.181 61.8496 149.921 61.8496C149.198 61.8496 148.837 62.3281 148.837 63.2852L148.534 61.7617H148.954C148.993 61.4134 149.114 61.1546 149.315 60.9854C149.521 60.8128 149.825 60.7266 150.229 60.7266C150.775 60.7266 151.199 60.8926 151.498 61.2246C151.798 61.5566 151.947 62.0254 151.947 62.6309V66H150.741ZM147.631 66V60.8242H148.715L148.837 61.918V66H147.631ZM161.239 63.7734L160.937 62.0547H161.366C161.422 61.1693 161.876 60.7266 162.729 60.7266C163.236 60.7266 163.617 60.8958 163.871 61.2344C164.125 61.5729 164.252 62.084 164.252 62.7676H163.051C163.051 62.4323 162.994 62.1914 162.88 62.0449C162.769 61.8984 162.59 61.8252 162.343 61.8252C161.972 61.8252 161.695 61.9945 161.513 62.333C161.33 62.6715 161.239 63.1517 161.239 63.7734ZM158.92 66V64.9551H162.475V66H158.92ZM160.038 66V60.8242H161.044L161.239 62.3086V66H160.038ZM159.115 61.8691V60.8242H160.976L161.073 61.8691H159.115ZM168.363 66.0488L168.271 64.5156L168.202 63.9395V62.7969C168.202 62.4941 168.083 62.2728 167.846 62.1328C167.608 61.9896 167.253 61.9115 166.781 61.8984L165.492 61.8643L165.59 60.7754L166.684 60.79C167.589 60.8031 168.261 60.9886 168.7 61.3467C169.14 61.7015 169.359 62.2207 169.359 62.9043V64.916L170.141 65.0234V66L168.363 66.0488ZM166.581 66.0977C166.034 66.0977 165.609 65.9642 165.307 65.6973C165.007 65.4303 164.857 65.0527 164.857 64.5645C164.857 63.998 165.059 63.5635 165.463 63.2607C165.867 62.958 166.438 62.8066 167.177 62.8066C167.47 62.8066 167.727 62.8229 167.948 62.8555C168.17 62.888 168.381 62.9385 168.583 63.0068L168.368 63.9053C168.157 63.8564 167.96 63.8288 167.777 63.8223C167.595 63.8125 167.405 63.8076 167.206 63.8076C166.438 63.8076 166.054 64.0339 166.054 64.4863C166.054 64.6849 166.12 64.8363 166.254 64.9404C166.391 65.0446 166.588 65.0967 166.845 65.0967C167.144 65.0967 167.395 65.043 167.597 64.9355C167.799 64.8249 167.95 64.6865 168.051 64.5205C168.152 64.3512 168.202 64.1771 168.202 63.998V63.5781L168.437 64.9062H168.021L168.192 64.75C168.186 65.0495 168.116 65.3001 167.982 65.502C167.852 65.7005 167.668 65.8503 167.431 65.9512C167.193 66.0488 166.91 66.0977 166.581 66.0977ZM174.179 66V62.8262C174.179 62.5137 174.107 62.2728 173.964 62.1035C173.821 61.9342 173.619 61.8496 173.358 61.8496C172.636 61.8496 172.274 62.3281 172.274 63.2852L171.972 61.7617H172.392C172.431 61.4134 172.551 61.1546 172.753 60.9854C172.958 60.8128 173.262 60.7266 173.666 60.7266C174.213 60.7266 174.636 60.8926 174.936 61.2246C175.235 61.5566 175.385 62.0254 175.385 62.6309V66H174.179ZM171.068 66V60.8242H172.152L172.274 61.918V66H171.068ZM177.045 68.334L176.996 67.2646L178.656 67.2158C179.138 67.1995 179.488 67.0645 179.706 66.8105C179.924 66.5599 180.035 66.1888 180.038 65.6973V61.918L180.136 60.8242H181.244V65.541C181.244 66.4622 181.029 67.141 180.6 67.5771C180.173 68.0166 179.493 68.2526 178.559 68.2852L177.045 68.334ZM178.622 66.0977C177.965 66.0977 177.458 65.8698 177.104 65.4141C176.752 64.9583 176.576 64.2992 176.576 63.4365C176.576 62.5609 176.752 61.8903 177.104 61.4248C177.458 60.9593 177.966 60.7266 178.627 60.7266C179.024 60.7266 179.333 60.8145 179.555 60.9902C179.779 61.166 179.918 61.4232 179.97 61.7617H180.36L180.038 63.3438C180.038 62.8294 179.945 62.4486 179.76 62.2012C179.574 61.9505 179.299 61.8252 178.935 61.8252C178.567 61.8252 178.285 61.9635 178.09 62.2402C177.895 62.5169 177.797 62.9157 177.797 63.4365C177.797 63.9508 177.893 64.3398 178.085 64.6035C178.277 64.8672 178.56 64.999 178.935 64.999C179.325 64.999 179.607 64.8753 179.779 64.6279C179.952 64.3805 180.038 63.9997 180.038 63.4854L180.39 65.0625H179.936C179.89 65.401 179.753 65.6582 179.525 65.834C179.298 66.0098 178.996 66.0977 178.622 66.0977ZM185.37 66.0977C184.481 66.0977 183.795 65.8665 183.31 65.4043C182.825 64.9388 182.582 64.2715 182.582 63.4023C182.582 62.556 182.787 61.8984 183.197 61.4297C183.611 60.9609 184.192 60.7266 184.94 60.7266C185.663 60.7266 186.221 60.9414 186.615 61.3711C187.012 61.8008 187.211 62.4242 187.211 63.2412C187.211 63.4788 187.201 63.7018 187.182 63.9102H183.451V63.041H186.059C186.059 62.6471 185.961 62.3444 185.766 62.1328C185.57 61.9212 185.299 61.8154 184.95 61.8154C184.569 61.8154 184.273 61.9489 184.062 62.2158C183.85 62.4827 183.744 62.862 183.744 63.3535C183.744 63.8841 183.896 64.2894 184.198 64.5693C184.501 64.846 184.931 64.9844 185.487 64.9844C185.715 64.9844 185.938 64.973 186.156 64.9502C186.378 64.9242 186.602 64.89 186.83 64.8477L186.957 65.9609C186.638 66.0195 186.345 66.057 186.078 66.0732C185.811 66.0895 185.575 66.0977 185.37 66.0977Z" fill="black"/>
<path d="M125.93 22.0977C124.191 22.0977 123.322 20.9258 123.322 18.582C123.322 16.1732 124.191 14.9688 125.93 14.9688C127.668 14.9688 128.537 16.1732 128.537 18.582C128.537 20.9258 127.668 22.0977 125.93 22.0977ZM125.93 20.999C126.848 20.999 127.307 20.1934 127.307 18.582C127.307 16.9056 126.848 16.0674 125.93 16.0674C125.012 16.0674 124.553 16.9056 124.553 18.582C124.553 20.1934 125.012 20.999 125.93 20.999ZM129.631 24.2461V16.8242H130.739L130.837 17.918V24.2461H129.631ZM132.253 22.0977C131.879 22.0977 131.577 22.0098 131.35 21.834C131.122 21.6582 130.985 21.401 130.939 21.0625H130.485L130.837 19.4854C130.837 19.9997 130.923 20.3805 131.096 20.6279C131.271 20.8753 131.553 20.999 131.94 20.999C132.315 20.999 132.598 20.8672 132.79 20.6035C132.982 20.3398 133.078 19.9508 133.078 19.4365C133.078 18.9157 132.98 18.5169 132.785 18.2402C132.59 17.9635 132.308 17.8252 131.94 17.8252C131.576 17.8252 131.301 17.9505 131.115 18.2012C130.93 18.4486 130.837 18.8294 130.837 19.3438L130.515 17.7617H130.905C130.961 17.4232 131.099 17.166 131.32 16.9902C131.542 16.8145 131.851 16.7266 132.248 16.7266C132.909 16.7266 133.415 16.9593 133.767 17.4248C134.121 17.8903 134.299 18.5609 134.299 19.4365C134.299 20.2992 134.121 20.9583 133.767 21.4141C133.415 21.8698 132.91 22.0977 132.253 22.0977ZM138.073 22.0977C137.185 22.0977 136.498 21.8665 136.013 21.4043C135.528 20.9388 135.285 20.2715 135.285 19.4023C135.285 18.556 135.49 17.8984 135.9 17.4297C136.314 16.9609 136.895 16.7266 137.644 16.7266C138.366 16.7266 138.924 16.9414 139.318 17.3711C139.715 17.8008 139.914 18.4242 139.914 19.2412C139.914 19.4788 139.904 19.7018 139.885 19.9102H136.154V19.041H138.762C138.762 18.6471 138.664 18.3444 138.469 18.1328C138.273 17.9212 138.002 17.8154 137.653 17.8154C137.272 17.8154 136.976 17.9489 136.765 18.2158C136.553 18.4827 136.447 18.862 136.447 19.3535C136.447 19.8841 136.599 20.2894 136.901 20.5693C137.204 20.846 137.634 20.9844 138.19 20.9844C138.418 20.9844 138.641 20.973 138.859 20.9502C139.081 20.9242 139.305 20.89 139.533 20.8477L139.66 21.9609C139.341 22.0195 139.048 22.057 138.781 22.0732C138.514 22.0895 138.278 22.0977 138.073 22.0977ZM143.239 19.7734L142.937 18.0547H143.366C143.422 17.1693 143.876 16.7266 144.729 16.7266C145.236 16.7266 145.617 16.8958 145.871 17.2344C146.125 17.5729 146.252 18.084 146.252 18.7676H145.051C145.051 18.4323 144.994 18.1914 144.88 18.0449C144.769 17.8984 144.59 17.8252 144.343 17.8252C143.972 17.8252 143.695 17.9945 143.513 18.333C143.33 18.6715 143.239 19.1517 143.239 19.7734ZM140.92 22V20.9551H144.475V22H140.92ZM142.038 22V16.8242H143.044L143.239 18.3086V22H142.038ZM141.115 17.8691V16.8242H142.976L143.073 17.8691H141.115ZM150.363 22.0488L150.271 20.5156L150.202 19.9395V18.7969C150.202 18.4941 150.083 18.2728 149.846 18.1328C149.608 17.9896 149.253 17.9115 148.781 17.8984L147.492 17.8643L147.59 16.7754L148.684 16.79C149.589 16.8031 150.261 16.9886 150.7 17.3467C151.14 17.7015 151.359 18.2207 151.359 18.9043V20.916L152.141 21.0234V22L150.363 22.0488ZM148.581 22.0977C148.034 22.0977 147.609 21.9642 147.307 21.6973C147.007 21.4303 146.857 21.0527 146.857 20.5645C146.857 19.998 147.059 19.5635 147.463 19.2607C147.867 18.958 148.438 18.8066 149.177 18.8066C149.47 18.8066 149.727 18.8229 149.948 18.8555C150.17 18.888 150.381 18.9385 150.583 19.0068L150.368 19.9053C150.157 19.8564 149.96 19.8288 149.777 19.8223C149.595 19.8125 149.405 19.8076 149.206 19.8076C148.438 19.8076 148.054 20.0339 148.054 20.4863C148.054 20.6849 148.12 20.8363 148.254 20.9404C148.391 21.0446 148.588 21.0967 148.845 21.0967C149.144 21.0967 149.395 21.043 149.597 20.9355C149.799 20.8249 149.95 20.6865 150.051 20.5205C150.152 20.3512 150.202 20.1771 150.202 19.998V19.5781L150.437 20.9062H150.021L150.192 20.75C150.186 21.0495 150.116 21.3001 149.982 21.502C149.852 21.7005 149.668 21.8503 149.431 21.9512C149.193 22.0488 148.91 22.0977 148.581 22.0977ZM156.262 22.0977C155.412 22.0977 154.799 21.9251 154.421 21.5801C154.043 21.235 153.854 20.6833 153.854 19.9248V19.168H155.056V19.8271C155.056 20.2275 155.157 20.5189 155.358 20.7012C155.563 20.8835 155.897 20.9746 156.359 20.9746C156.512 20.9746 156.677 20.9665 156.853 20.9502C157.028 20.9307 157.229 20.9062 157.453 20.877L157.57 21.9805C157.352 22.0195 157.137 22.0488 156.926 22.0684C156.717 22.0879 156.496 22.0977 156.262 22.0977ZM153.854 19.5098V15.2617H155.056V19.5098H153.854ZM152.59 17.918V16.8242H157.375V17.918H152.59ZM160.827 22V17.1172H162.028V22H160.827ZM158.889 22V20.9062H160.925V22H158.889ZM161.931 22V20.9062H163.586V22H161.931ZM159.182 17.918V16.8242H162.028V17.918H159.182ZM161.379 16.0771C161.148 16.0771 160.957 16.0023 160.808 15.8525C160.658 15.7028 160.583 15.5124 160.583 15.2812C160.583 15.0501 160.658 14.8597 160.808 14.71C160.957 14.5602 161.148 14.4854 161.379 14.4854C161.61 14.4854 161.8 14.5602 161.95 14.71C162.1 14.8597 162.175 15.0501 162.175 15.2812C162.175 15.5124 162.1 15.7028 161.95 15.8525C161.8 16.0023 161.61 16.0771 161.379 16.0771ZM166.945 22.0977C166.213 22.0977 165.643 21.8633 165.236 21.3945C164.833 20.9258 164.631 20.265 164.631 19.4121C164.631 18.556 164.833 17.8952 165.236 17.4297C165.643 16.9609 166.213 16.7266 166.945 16.7266C167.681 16.7266 168.251 16.9609 168.654 17.4297C169.058 17.8952 169.26 18.556 169.26 19.4121C169.26 20.265 169.058 20.9258 168.654 21.3945C168.251 21.8633 167.681 22.0977 166.945 22.0977ZM166.945 20.9746C167.29 20.9746 167.556 20.8395 167.741 20.5693C167.927 20.2959 168.02 19.9102 168.02 19.4121C168.02 18.9108 167.925 18.5251 167.736 18.2549C167.551 17.9847 167.287 17.8496 166.945 17.8496C166.604 17.8496 166.338 17.9847 166.149 18.2549C165.964 18.5251 165.871 18.9108 165.871 19.4121C165.871 19.9102 165.964 20.2959 166.149 20.5693C166.338 20.8395 166.604 20.9746 166.945 20.9746ZM173.757 22V18.8262C173.757 18.5137 173.685 18.2728 173.542 18.1035C173.399 17.9342 173.197 17.8496 172.937 17.8496C172.214 17.8496 171.853 18.3281 171.853 19.2852L171.55 17.7617H171.97C172.009 17.4134 172.129 17.1546 172.331 16.9854C172.536 16.8128 172.84 16.7266 173.244 16.7266C173.791 16.7266 174.214 16.8926 174.514 17.2246C174.813 17.5566 174.963 18.0254 174.963 18.6309V22H173.757ZM170.646 22V16.8242H171.73L171.853 17.918V22H170.646ZM185.559 22.0977C184.709 22.0977 184.095 21.9251 183.718 21.5801C183.34 21.235 183.151 20.6833 183.151 19.9248V19.168H184.353V19.8271C184.353 20.2275 184.453 20.5189 184.655 20.7012C184.86 20.8835 185.194 20.9746 185.656 20.9746C185.809 20.9746 185.974 20.9665 186.149 20.9502C186.325 20.9307 186.525 20.9062 186.75 20.877L186.867 21.9805C186.649 22.0195 186.434 22.0488 186.223 22.0684C186.014 22.0879 185.793 22.0977 185.559 22.0977ZM183.151 19.5098V15.2617H184.353V19.5098H183.151ZM181.887 17.918V16.8242H186.672V17.918H181.887ZM187.771 24.3438L187.722 23.2842L188.581 23.1865C188.9 23.1475 189.174 23.0612 189.401 22.9277C189.629 22.7943 189.825 22.5957 189.987 22.332C190.15 22.0684 190.292 21.7233 190.412 21.2969L191.677 16.8242H192.946L191.477 21.541C191.281 22.1628 191.058 22.6624 190.808 23.04C190.56 23.4176 190.266 23.7008 189.924 23.8896C189.582 24.0785 189.174 24.1973 188.698 24.2461L187.771 24.3438ZM189.538 22L187.673 16.8242H188.942L190.388 21.0137H190.593V22H189.538ZM194.084 24.2461V16.8242H195.192L195.29 17.918V24.2461H194.084ZM196.706 22.0977C196.332 22.0977 196.031 22.0098 195.803 21.834C195.575 21.6582 195.438 21.401 195.393 21.0625H194.938L195.29 19.4854C195.29 19.9997 195.376 20.3805 195.549 20.6279C195.725 20.8753 196.006 20.999 196.394 20.999C196.768 20.999 197.051 20.8672 197.243 20.6035C197.435 20.3398 197.531 19.9508 197.531 19.4365C197.531 18.9157 197.434 18.5169 197.238 18.2402C197.043 17.9635 196.761 17.8252 196.394 17.8252C196.029 17.8252 195.754 17.9505 195.568 18.2012C195.383 18.4486 195.29 18.8294 195.29 19.3438L194.968 17.7617H195.358C195.414 17.4232 195.552 17.166 195.773 16.9902C195.995 16.8145 196.304 16.7266 196.701 16.7266C197.362 16.7266 197.868 16.9593 198.22 17.4248C198.575 17.8903 198.752 18.5609 198.752 19.4365C198.752 20.2992 198.575 20.9583 198.22 21.4141C197.868 21.8698 197.364 22.0977 196.706 22.0977ZM202.526 22.0977C201.638 22.0977 200.951 21.8665 200.466 21.4043C199.981 20.9388 199.738 20.2715 199.738 19.4023C199.738 18.556 199.943 17.8984 200.354 17.4297C200.767 16.9609 201.348 16.7266 202.097 16.7266C202.819 16.7266 203.378 16.9414 203.771 17.3711C204.169 17.8008 204.367 18.4242 204.367 19.2412C204.367 19.4788 204.357 19.7018 204.338 19.9102H200.607V19.041H203.215C203.215 18.6471 203.117 18.3444 202.922 18.1328C202.727 17.9212 202.455 17.8154 202.106 17.8154C201.726 17.8154 201.429 17.9489 201.218 18.2158C201.006 18.4827 200.9 18.862 200.9 19.3535C200.9 19.8841 201.052 20.2894 201.354 20.5693C201.657 20.846 202.087 20.9844 202.644 20.9844C202.871 20.9844 203.094 20.973 203.312 20.9502C203.534 20.9242 203.758 20.89 203.986 20.8477L204.113 21.9609C203.794 22.0195 203.501 22.057 203.234 22.0732C202.967 22.0895 202.731 22.0977 202.526 22.0977Z" fill="black"/>
<rect x="124" y="25" width="80" height="23" rx="3" fill="#D9D9D9" stroke="black" stroke-width="2"/>
<path d="M128.83 40V33.0664H130.007V40H128.83ZM128.83 37.3633V36.2744H132.59V37.3633H128.83ZM128.83 34.1504V33.0664H133.518V34.1504H128.83ZM136.789 40.0977C136.057 40.0977 135.487 39.8633 135.08 39.3945C134.676 38.9258 134.475 38.265 134.475 37.4121C134.475 36.556 134.676 35.8952 135.08 35.4297C135.487 34.9609 136.057 34.7266 136.789 34.7266C137.525 34.7266 138.094 34.9609 138.498 35.4297C138.902 35.8952 139.104 36.556 139.104 37.4121C139.104 38.265 138.902 38.9258 138.498 39.3945C138.094 39.8633 137.525 40.0977 136.789 40.0977ZM136.789 38.9746C137.134 38.9746 137.399 38.8395 137.585 38.5693C137.771 38.2959 137.863 37.9102 137.863 37.4121C137.863 36.9108 137.769 36.5251 137.58 36.2549C137.395 35.9847 137.131 35.8496 136.789 35.8496C136.447 35.8496 136.182 35.9847 135.993 36.2549C135.808 36.5251 135.715 36.9108 135.715 37.4121C135.715 37.9102 135.808 38.2959 135.993 38.5693C136.182 38.8395 136.447 38.9746 136.789 38.9746ZM142.38 37.7734L142.077 36.0547H142.507C142.562 35.1693 143.016 34.7266 143.869 34.7266C144.377 34.7266 144.758 34.8958 145.012 35.2344C145.266 35.5729 145.393 36.084 145.393 36.7676H144.191C144.191 36.4323 144.134 36.1914 144.021 36.0449C143.91 35.8984 143.731 35.8252 143.483 35.8252C143.112 35.8252 142.836 35.9945 142.653 36.333C142.471 36.6715 142.38 37.1517 142.38 37.7734ZM140.061 40V38.9551H143.615V40H140.061ZM141.179 40V34.8242H142.185L142.38 36.3086V40H141.179ZM140.256 35.8691V34.8242H142.116L142.214 35.8691H140.256Z" fill="black"/>
<path d="M196.567 39.25C196.76 39.5831 197.24 39.5831 197.433 39.25L200.031 34.75C200.224 34.4167 199.983 34 199.598 34H194.402C194.017 34 193.776 34.4167 193.969 34.75L196.567 39.25Z" fill="#D9D9D9" stroke="black"/>
</svg>
