<svg width="246" height="148" viewBox="0 0 246 148" fill="none" xmlns="http://www.w3.org/2000/svg">
<rect width="246" height="148" fill="#1E1E1E"/>
<rect x="-396" y="-321" width="1920" height="1080" fill="white"/>
<path d="M15 2.5H19C20.2728 2.5 21.6998 3.62377 22.1943 5.56641C24.6722 15.2991 33.4921 22.5 44 22.5C54.5079 22.5 63.3278 15.2991 65.8057 5.56641C66.3002 3.62377 67.7272 2.5 69 2.5H186C217.756 2.5 243.5 28.2436 243.5 60V68C243.5 99.7556 217.743 125.5 185.986 125.5H69C64.75 125.5 61.8279 128.924 60.96 132.333C59.0325 139.904 52.1667 145.5 44 145.5C35.8333 145.5 28.9675 139.904 27.04 132.333C26.1721 128.924 23.25 125.5 19 125.5H15.0234C8.11479 125.5 2.5 119.898 2.5 113V15C2.5 8.20418 7.92311 2.67484 14.6777 2.50391L15 2.5Z" fill="#D9D9D9" stroke="black" stroke-width="5"/>
<rect x="20" y="69" width="198" height="23" rx="3" fill="#D9D9D9" stroke="black" stroke-width="2"/>
<rect x="106" y="25" width="80" height="23" rx="3" fill="#D9D9D9" stroke="black" stroke-width="2"/>
<path d="M107.93 22.0977C106.191 22.0977 105.322 20.9258 105.322 18.582C105.322 16.1732 106.191 14.9688 107.93 14.9688C109.668 14.9688 110.537 16.1732 110.537 18.582C110.537 20.9258 109.668 22.0977 107.93 22.0977ZM107.93 20.999C108.848 20.999 109.307 20.1934 109.307 18.582C109.307 16.9056 108.848 16.0674 107.93 16.0674C107.012 16.0674 106.553 16.9056 106.553 18.582C106.553 20.1934 107.012 20.999 107.93 20.999ZM111.631 24.2461V16.8242H112.739L112.837 17.918V24.2461H111.631ZM114.253 22.0977C113.879 22.0977 113.577 22.0098 113.35 21.834C113.122 21.6582 112.985 21.401 112.939 21.0625H112.485L112.837 19.4854C112.837 19.9997 112.923 20.3805 113.096 20.6279C113.271 20.8753 113.553 20.999 113.94 20.999C114.315 20.999 114.598 20.8672 114.79 20.6035C114.982 20.3398 115.078 19.9508 115.078 19.4365C115.078 18.9157 114.98 18.5169 114.785 18.2402C114.59 17.9635 114.308 17.8252 113.94 17.8252C113.576 17.8252 113.301 17.9505 113.115 18.2012C112.93 18.4486 112.837 18.8294 112.837 19.3438L112.515 17.7617H112.905C112.961 17.4232 113.099 17.166 113.32 16.9902C113.542 16.8145 113.851 16.7266 114.248 16.7266C114.909 16.7266 115.415 16.9593 115.767 17.4248C116.121 17.8903 116.299 18.5609 116.299 19.4365C116.299 20.2992 116.121 20.9583 115.767 21.4141C115.415 21.8698 114.91 22.0977 114.253 22.0977ZM120.073 22.0977C119.185 22.0977 118.498 21.8665 118.013 21.4043C117.528 20.9388 117.285 20.2715 117.285 19.4023C117.285 18.556 117.49 17.8984 117.9 17.4297C118.314 16.9609 118.895 16.7266 119.644 16.7266C120.366 16.7266 120.924 16.9414 121.318 17.3711C121.715 17.8008 121.914 18.4242 121.914 19.2412C121.914 19.4788 121.904 19.7018 121.885 19.9102H118.154V19.041H120.762C120.762 18.6471 120.664 18.3444 120.469 18.1328C120.273 17.9212 120.002 17.8154 119.653 17.8154C119.272 17.8154 118.976 17.9489 118.765 18.2158C118.553 18.4827 118.447 18.862 118.447 19.3535C118.447 19.8841 118.599 20.2894 118.901 20.5693C119.204 20.846 119.634 20.9844 120.19 20.9844C120.418 20.9844 120.641 20.973 120.859 20.9502C121.081 20.9242 121.305 20.89 121.533 20.8477L121.66 21.9609C121.341 22.0195 121.048 22.057 120.781 22.0732C120.514 22.0895 120.278 22.0977 120.073 22.0977ZM125.239 19.7734L124.937 18.0547H125.366C125.422 17.1693 125.876 16.7266 126.729 16.7266C127.236 16.7266 127.617 16.8958 127.871 17.2344C128.125 17.5729 128.252 18.084 128.252 18.7676H127.051C127.051 18.4323 126.994 18.1914 126.88 18.0449C126.769 17.8984 126.59 17.8252 126.343 17.8252C125.972 17.8252 125.695 17.9945 125.513 18.333C125.33 18.6715 125.239 19.1517 125.239 19.7734ZM122.92 22V20.9551H126.475V22H122.92ZM124.038 22V16.8242H125.044L125.239 18.3086V22H124.038ZM123.115 17.8691V16.8242H124.976L125.073 17.8691H123.115ZM132.363 22.0488L132.271 20.5156L132.202 19.9395V18.7969C132.202 18.4941 132.083 18.2728 131.846 18.1328C131.608 17.9896 131.253 17.9115 130.781 17.8984L129.492 17.8643L129.59 16.7754L130.684 16.79C131.589 16.8031 132.261 16.9886 132.7 17.3467C133.14 17.7015 133.359 18.2207 133.359 18.9043V20.916L134.141 21.0234V22L132.363 22.0488ZM130.581 22.0977C130.034 22.0977 129.609 21.9642 129.307 21.6973C129.007 21.4303 128.857 21.0527 128.857 20.5645C128.857 19.998 129.059 19.5635 129.463 19.2607C129.867 18.958 130.438 18.8066 131.177 18.8066C131.47 18.8066 131.727 18.8229 131.948 18.8555C132.17 18.888 132.381 18.9385 132.583 19.0068L132.368 19.9053C132.157 19.8564 131.96 19.8288 131.777 19.8223C131.595 19.8125 131.405 19.8076 131.206 19.8076C130.438 19.8076 130.054 20.0339 130.054 20.4863C130.054 20.6849 130.12 20.8363 130.254 20.9404C130.391 21.0446 130.588 21.0967 130.845 21.0967C131.144 21.0967 131.395 21.043 131.597 20.9355C131.799 20.8249 131.95 20.6865 132.051 20.5205C132.152 20.3512 132.202 20.1771 132.202 19.998V19.5781L132.437 20.9062H132.021L132.192 20.75C132.186 21.0495 132.116 21.3001 131.982 21.502C131.852 21.7005 131.668 21.8503 131.431 21.9512C131.193 22.0488 130.91 22.0977 130.581 22.0977ZM138.262 22.0977C137.412 22.0977 136.799 21.9251 136.421 21.5801C136.043 21.235 135.854 20.6833 135.854 19.9248V19.168H137.056V19.8271C137.056 20.2275 137.157 20.5189 137.358 20.7012C137.563 20.8835 137.897 20.9746 138.359 20.9746C138.512 20.9746 138.677 20.9665 138.853 20.9502C139.028 20.9307 139.229 20.9062 139.453 20.877L139.57 21.9805C139.352 22.0195 139.137 22.0488 138.926 22.0684C138.717 22.0879 138.496 22.0977 138.262 22.0977ZM135.854 19.5098V15.2617H137.056V19.5098H135.854ZM134.59 17.918V16.8242H139.375V17.918H134.59ZM142.827 22V17.1172H144.028V22H142.827ZM140.889 22V20.9062H142.925V22H140.889ZM143.931 22V20.9062H145.586V22H143.931ZM141.182 17.918V16.8242H144.028V17.918H141.182ZM143.379 16.0771C143.148 16.0771 142.957 16.0023 142.808 15.8525C142.658 15.7028 142.583 15.5124 142.583 15.2812C142.583 15.0501 142.658 14.8597 142.808 14.71C142.957 14.5602 143.148 14.4854 143.379 14.4854C143.61 14.4854 143.8 14.5602 143.95 14.71C144.1 14.8597 144.175 15.0501 144.175 15.2812C144.175 15.5124 144.1 15.7028 143.95 15.8525C143.8 16.0023 143.61 16.0771 143.379 16.0771ZM148.945 22.0977C148.213 22.0977 147.643 21.8633 147.236 21.3945C146.833 20.9258 146.631 20.265 146.631 19.4121C146.631 18.556 146.833 17.8952 147.236 17.4297C147.643 16.9609 148.213 16.7266 148.945 16.7266C149.681 16.7266 150.251 16.9609 150.654 17.4297C151.058 17.8952 151.26 18.556 151.26 19.4121C151.26 20.265 151.058 20.9258 150.654 21.3945C150.251 21.8633 149.681 22.0977 148.945 22.0977ZM148.945 20.9746C149.29 20.9746 149.556 20.8395 149.741 20.5693C149.927 20.2959 150.02 19.9102 150.02 19.4121C150.02 18.9108 149.925 18.5251 149.736 18.2549C149.551 17.9847 149.287 17.8496 148.945 17.8496C148.604 17.8496 148.338 17.9847 148.149 18.2549C147.964 18.5251 147.871 18.9108 147.871 19.4121C147.871 19.9102 147.964 20.2959 148.149 20.5693C148.338 20.8395 148.604 20.9746 148.945 20.9746ZM155.757 22V18.8262C155.757 18.5137 155.685 18.2728 155.542 18.1035C155.399 17.9342 155.197 17.8496 154.937 17.8496C154.214 17.8496 153.853 18.3281 153.853 19.2852L153.55 17.7617H153.97C154.009 17.4134 154.129 17.1546 154.331 16.9854C154.536 16.8128 154.84 16.7266 155.244 16.7266C155.791 16.7266 156.214 16.8926 156.514 17.2246C156.813 17.5566 156.963 18.0254 156.963 18.6309V22H155.757ZM152.646 22V16.8242H153.73L153.853 17.918V22H152.646ZM167.559 22.0977C166.709 22.0977 166.095 21.9251 165.718 21.5801C165.34 21.235 165.151 20.6833 165.151 19.9248V19.168H166.353V19.8271C166.353 20.2275 166.453 20.5189 166.655 20.7012C166.86 20.8835 167.194 20.9746 167.656 20.9746C167.809 20.9746 167.974 20.9665 168.149 20.9502C168.325 20.9307 168.525 20.9062 168.75 20.877L168.867 21.9805C168.649 22.0195 168.434 22.0488 168.223 22.0684C168.014 22.0879 167.793 22.0977 167.559 22.0977ZM165.151 19.5098V15.2617H166.353V19.5098H165.151ZM163.887 17.918V16.8242H168.672V17.918H163.887ZM169.771 24.3438L169.722 23.2842L170.581 23.1865C170.9 23.1475 171.174 23.0612 171.401 22.9277C171.629 22.7943 171.825 22.5957 171.987 22.332C172.15 22.0684 172.292 21.7233 172.412 21.2969L173.677 16.8242H174.946L173.477 21.541C173.281 22.1628 173.058 22.6624 172.808 23.04C172.56 23.4176 172.266 23.7008 171.924 23.8896C171.582 24.0785 171.174 24.1973 170.698 24.2461L169.771 24.3438ZM171.538 22L169.673 16.8242H170.942L172.388 21.0137H172.593V22H171.538ZM176.084 24.2461V16.8242H177.192L177.29 17.918V24.2461H176.084ZM178.706 22.0977C178.332 22.0977 178.031 22.0098 177.803 21.834C177.575 21.6582 177.438 21.401 177.393 21.0625H176.938L177.29 19.4854C177.29 19.9997 177.376 20.3805 177.549 20.6279C177.725 20.8753 178.006 20.999 178.394 20.999C178.768 20.999 179.051 20.8672 179.243 20.6035C179.435 20.3398 179.531 19.9508 179.531 19.4365C179.531 18.9157 179.434 18.5169 179.238 18.2402C179.043 17.9635 178.761 17.8252 178.394 17.8252C178.029 17.8252 177.754 17.9505 177.568 18.2012C177.383 18.4486 177.29 18.8294 177.29 19.3438L176.968 17.7617H177.358C177.414 17.4232 177.552 17.166 177.773 16.9902C177.995 16.8145 178.304 16.7266 178.701 16.7266C179.362 16.7266 179.868 16.9593 180.22 17.4248C180.575 17.8903 180.752 18.5609 180.752 19.4365C180.752 20.2992 180.575 20.9583 180.22 21.4141C179.868 21.8698 179.364 22.0977 178.706 22.0977ZM184.526 22.0977C183.638 22.0977 182.951 21.8665 182.466 21.4043C181.981 20.9388 181.738 20.2715 181.738 19.4023C181.738 18.556 181.943 17.8984 182.354 17.4297C182.767 16.9609 183.348 16.7266 184.097 16.7266C184.819 16.7266 185.378 16.9414 185.771 17.3711C186.169 17.8008 186.367 18.4242 186.367 19.2412C186.367 19.4788 186.357 19.7018 186.338 19.9102H182.607V19.041H185.215C185.215 18.6471 185.117 18.3444 184.922 18.1328C184.727 17.9212 184.455 17.8154 184.106 17.8154C183.726 17.8154 183.429 17.9489 183.218 18.2158C183.006 18.4827 182.9 18.862 182.9 19.3535C182.9 19.8841 183.052 20.2894 183.354 20.5693C183.657 20.846 184.087 20.9844 184.644 20.9844C184.871 20.9844 185.094 20.973 185.312 20.9502C185.534 20.9242 185.758 20.89 185.986 20.8477L186.113 21.9609C185.794 22.0195 185.501 22.057 185.234 22.0732C184.967 22.0895 184.731 22.0977 184.526 22.0977Z" fill="black"/>
<path d="M113.428 40.0977C112.376 40.0977 111.587 39.7998 111.06 39.2041C110.535 38.6084 110.273 37.7148 110.273 36.5234C110.273 35.3939 110.545 34.5199 111.089 33.9014C111.636 33.2796 112.402 32.9688 113.389 32.9688C113.887 32.9688 114.318 33.0469 114.683 33.2031C115.047 33.3561 115.326 33.5758 115.518 33.8623L114.741 34.7119C114.591 34.5068 114.403 34.3473 114.175 34.2334C113.95 34.1195 113.708 34.0625 113.447 34.0625C112.832 34.0625 112.354 34.2725 112.012 34.6924C111.673 35.1123 111.504 35.7064 111.504 36.4746C111.504 37.3177 111.675 37.9492 112.017 38.3691C112.358 38.7891 112.868 38.999 113.545 38.999C113.854 38.999 114.126 38.9697 114.36 38.9111C114.598 38.8493 114.792 38.7972 114.941 38.7549L115.371 39.8047C115.231 39.847 114.985 39.9072 114.634 39.9854C114.282 40.0602 113.88 40.0977 113.428 40.0977ZM114.219 39.8047V36.46H115.371V39.8047H114.219ZM112.979 37.5439V36.46H115.342V37.5439H112.979ZM119.214 40.0977C118.325 40.0977 117.638 39.8665 117.153 39.4043C116.668 38.9388 116.426 38.2715 116.426 37.4023C116.426 36.556 116.631 35.8984 117.041 35.4297C117.454 34.9609 118.035 34.7266 118.784 34.7266C119.507 34.7266 120.065 34.9414 120.459 35.3711C120.856 35.8008 121.055 36.4242 121.055 37.2412C121.055 37.4788 121.045 37.7018 121.025 37.9102H117.295V37.041H119.902C119.902 36.6471 119.805 36.3444 119.609 36.1328C119.414 35.9212 119.142 35.8154 118.794 35.8154C118.413 35.8154 118.117 35.9489 117.905 36.2158C117.694 36.4827 117.588 36.862 117.588 37.3535C117.588 37.8841 117.739 38.2894 118.042 38.5693C118.345 38.846 118.774 38.9844 119.331 38.9844C119.559 38.9844 119.782 38.973 120 38.9502C120.221 38.9242 120.446 38.89 120.674 38.8477L120.801 39.9609C120.482 40.0195 120.189 40.057 119.922 40.0732C119.655 40.0895 119.419 40.0977 119.214 40.0977ZM125.684 40.0977C124.834 40.0977 124.22 39.9251 123.843 39.5801C123.465 39.235 123.276 38.6833 123.276 37.9248V37.168H124.478V37.8271C124.478 38.2275 124.578 38.5189 124.78 38.7012C124.985 38.8835 125.319 38.9746 125.781 38.9746C125.934 38.9746 126.099 38.9665 126.274 38.9502C126.45 38.9307 126.65 38.9062 126.875 38.877L126.992 39.9805C126.774 40.0195 126.559 40.0488 126.348 40.0684C126.139 40.0879 125.918 40.0977 125.684 40.0977ZM123.276 37.5098V33.2617H124.478V37.5098H123.276ZM122.012 35.918V34.8242H126.797V35.918H122.012Z" fill="black"/>
<path d="M21.0264 64L19.1709 57.0664H20.3867L21.8857 62.9746H21.9736L23.4727 57.0664H24.6885L22.833 64H21.0264ZM28.7852 64.0488L28.6924 62.5156L28.624 61.9395V60.7969C28.624 60.4941 28.5052 60.2728 28.2676 60.1328C28.0299 59.9896 27.6751 59.9115 27.2031 59.8984L25.9141 59.8643L26.0117 58.7754L27.1055 58.79C28.0104 58.8031 28.6826 58.9886 29.1221 59.3467C29.5615 59.7015 29.7812 60.2207 29.7812 60.9043V62.916L30.5625 63.0234V64L28.7852 64.0488ZM27.0029 64.0977C26.4561 64.0977 26.0312 63.9642 25.7285 63.6973C25.429 63.4303 25.2793 63.0527 25.2793 62.5645C25.2793 61.998 25.4811 61.5635 25.8848 61.2607C26.2884 60.958 26.8597 60.8066 27.5986 60.8066C27.8916 60.8066 28.1488 60.8229 28.3701 60.8555C28.5915 60.888 28.8031 60.9385 29.0049 61.0068L28.79 61.9053C28.5785 61.8564 28.3815 61.8288 28.1992 61.8223C28.0169 61.8125 27.8265 61.8076 27.6279 61.8076C26.8597 61.8076 26.4756 62.0339 26.4756 62.4863C26.4756 62.6849 26.5423 62.8363 26.6758 62.9404C26.8125 63.0446 27.0094 63.0967 27.2666 63.0967C27.5661 63.0967 27.8167 63.043 28.0186 62.9355C28.2204 62.8249 28.3717 62.6865 28.4727 62.5205C28.5736 62.3512 28.624 62.1771 28.624 61.998V61.5781L28.8584 62.9062H28.4434L28.6143 62.75C28.6077 63.0495 28.5378 63.3001 28.4043 63.502C28.2741 63.7005 28.0902 63.8503 27.8525 63.9512C27.6149 64.0488 27.3317 64.0977 27.0029 64.0977ZM34.4199 64.0977C33.7884 64.0977 33.3327 63.9251 33.0527 63.5801C32.776 63.235 32.6377 62.6833 32.6377 61.9248V56.6758H33.8389V61.876C33.8389 62.1136 33.8633 62.3089 33.9121 62.4619C33.9609 62.6117 34.0537 62.7223 34.1904 62.7939C34.3304 62.8656 34.5371 62.9014 34.8105 62.9014C35.0905 62.9014 35.4453 62.8395 35.875 62.7158L36.0117 63.8926C35.7415 63.9642 35.4795 64.0163 35.2256 64.0488C34.9749 64.0814 34.7064 64.0977 34.4199 64.0977ZM31.1484 57.7695V56.6758H32.7256V57.7695H31.1484ZM38.8535 64.0977C38.3392 64.0977 37.9421 63.9365 37.6621 63.6143C37.3822 63.2887 37.2422 62.8314 37.2422 62.2422V58.8242H38.4482V62.0469C38.4482 62.3431 38.5231 62.5726 38.6729 62.7354C38.8226 62.8949 39.0293 62.9746 39.293 62.9746C39.6315 62.9746 39.8854 62.8558 40.0547 62.6182C40.2272 62.3773 40.3135 61.9753 40.3135 61.4121L40.5771 63.0039H40.2012C40.1198 63.3555 39.9603 63.6257 39.7227 63.8145C39.4883 64.0033 39.1986 64.0977 38.8535 64.0977ZM40.4014 64.0488L40.3135 62.8086V61.9004H41.5195V62.916L42.2324 63.0234V64L40.4014 64.0488ZM40.3135 62.5352V58.8242H41.5195V62.2422L40.3135 62.5352ZM45.792 64.0977C44.9033 64.0977 44.2165 63.8665 43.7314 63.4043C43.2464 62.9388 43.0039 62.2715 43.0039 61.4023C43.0039 60.556 43.209 59.8984 43.6191 59.4297C44.0326 58.9609 44.6136 58.7266 45.3623 58.7266C46.085 58.7266 46.6432 58.9414 47.0371 59.3711C47.4342 59.8008 47.6328 60.4242 47.6328 61.2412C47.6328 61.4788 47.623 61.7018 47.6035 61.9102H43.873V61.041H46.4805C46.4805 60.6471 46.3828 60.3444 46.1875 60.1328C45.9922 59.9212 45.7204 59.8154 45.3721 59.8154C44.9912 59.8154 44.695 59.9489 44.4834 60.2158C44.2718 60.4827 44.166 60.862 44.166 61.3535C44.166 61.8841 44.3174 62.2894 44.6201 62.5693C44.9229 62.846 45.3525 62.9844 45.9092 62.9844C46.137 62.9844 46.36 62.973 46.5781 62.9502C46.7995 62.9242 47.0241 62.89 47.252 62.8477L47.3789 63.9609C47.0599 64.0195 46.7669 64.057 46.5 64.0732C46.2331 64.0895 45.9971 64.0977 45.792 64.0977Z" fill="black"/>
<path d="M178.567 39.25C178.76 39.5831 179.24 39.5831 179.433 39.25L182.031 34.75C182.224 34.4167 181.983 34 181.598 34H176.402C176.017 34 175.776 34.4167 175.969 34.75L178.567 39.25Z" fill="#D9D9D9" stroke="black"/>
</svg>
