<svg width="246" height="148" viewBox="0 0 246 148" fill="none" xmlns="http://www.w3.org/2000/svg">
<rect width="246" height="148" fill="#1E1E1E"/>
<rect x="-1024" y="-159" width="1920" height="1080" fill="white"/>
<path d="M15 2.5H19C20.2728 2.5 21.6998 3.62377 22.1943 5.56641C24.6722 15.2991 33.4921 22.5 44 22.5C54.5079 22.5 63.3278 15.2991 65.8057 5.56641C66.3002 3.62377 67.7272 2.5 69 2.5H186C217.756 2.5 243.5 28.2436 243.5 60V113C243.5 119.898 237.885 125.5 230.977 125.5H228C223.75 125.5 220.828 128.924 219.96 132.333C218.032 139.904 211.167 145.5 203 145.5C194.833 145.5 187.968 139.904 186.04 132.333C185.172 128.924 182.25 125.5 178 125.5H60.0137C28.2566 125.5 2.5 99.7556 2.5 68V15C2.5 8.20418 7.92311 2.67484 14.6777 2.50391L15 2.5Z" fill="#D9D9D9" stroke="black" stroke-width="5"/>
<path d="M27.5 69H210.5C212.157 69 213.5 70.3431 213.5 72V89C213.5 90.6569 212.157 92 210.5 92H27.5C25.8431 92 24.5 90.6569 24.5 89V72C24.5 70.3431 25.8431 69 27.5 69Z" fill="#D9D9D9" stroke="black" stroke-width="2"/>
<path d="M23.7324 66V59.0664H24.9092V66H23.7324ZM23.7324 66V64.916H28.4199V66H23.7324ZM23.7324 63.0703V61.9863H27.541V63.0703H23.7324ZM23.7324 60.1504V59.0664H28.4199V60.1504H23.7324ZM29.3037 66L31.4131 63.124L32.8584 60.8242H34.2744L32.0869 63.7881L30.7197 66H29.3037ZM32.8584 66L31.4326 63.7881L29.3037 60.8242H30.7197L32.165 63.124L34.2744 66H32.8584ZM35.4902 68.2461V60.8242H36.5986L36.6963 61.918V68.2461H35.4902ZM38.1123 66.0977C37.738 66.0977 37.4368 66.0098 37.209 65.834C36.9811 65.6582 36.8444 65.401 36.7988 65.0625H36.3447L36.6963 63.4854C36.6963 63.9997 36.7826 64.3805 36.9551 64.6279C37.1309 64.8753 37.4124 64.999 37.7998 64.999C38.1742 64.999 38.4574 64.8672 38.6494 64.6035C38.8415 64.3398 38.9375 63.9508 38.9375 63.4365C38.9375 62.9157 38.8398 62.5169 38.6445 62.2402C38.4492 61.9635 38.1676 61.8252 37.7998 61.8252C37.4352 61.8252 37.1602 61.9505 36.9746 62.2012C36.7891 62.4486 36.6963 62.8294 36.6963 63.3438L36.374 61.7617H36.7646C36.82 61.4232 36.9583 61.166 37.1797 60.9902C37.401 60.8145 37.7103 60.7266 38.1074 60.7266C38.7682 60.7266 39.2744 60.9593 39.626 61.4248C39.9808 61.8903 40.1582 62.5609 40.1582 63.4365C40.1582 64.2992 39.9808 64.9583 39.626 65.4141C39.2744 65.8698 38.7699 66.0977 38.1123 66.0977ZM43.2393 63.7734L42.9365 62.0547H43.3662C43.4215 61.1693 43.8757 60.7266 44.7285 60.7266C45.2363 60.7266 45.6172 60.8958 45.8711 61.2344C46.125 61.5729 46.252 62.084 46.252 62.7676H45.0508C45.0508 62.4323 44.9938 62.1914 44.8799 62.0449C44.7692 61.8984 44.5902 61.8252 44.3428 61.8252C43.9717 61.8252 43.695 61.9945 43.5127 62.333C43.3304 62.6715 43.2393 63.1517 43.2393 63.7734ZM40.9199 66V64.9551H44.4746V66H40.9199ZM42.0381 66V60.8242H43.0439L43.2393 62.3086V66H42.0381ZM41.1152 61.8691V60.8242H42.9756L43.0732 61.8691H41.1152ZM49.792 66.0977C48.9033 66.0977 48.2165 65.8665 47.7314 65.4043C47.2464 64.9388 47.0039 64.2715 47.0039 63.4023C47.0039 62.556 47.209 61.8984 47.6191 61.4297C48.0326 60.9609 48.6136 60.7266 49.3623 60.7266C50.085 60.7266 50.6432 60.9414 51.0371 61.3711C51.4342 61.8008 51.6328 62.4242 51.6328 63.2412C51.6328 63.4788 51.623 63.7018 51.6035 63.9102H47.873V63.041H50.4805C50.4805 62.6471 50.3828 62.3444 50.1875 62.1328C49.9922 61.9212 49.7204 61.8154 49.3721 61.8154C48.9912 61.8154 48.695 61.9489 48.4834 62.2158C48.2718 62.4827 48.166 62.862 48.166 63.3535C48.166 63.8841 48.3174 64.2894 48.6201 64.5693C48.9229 64.846 49.3525 64.9844 49.9092 64.9844C50.137 64.9844 50.36 64.973 50.5781 64.9502C50.7995 64.9242 51.0241 64.89 51.252 64.8477L51.3789 65.9609C51.0599 66.0195 50.7669 66.057 50.5 66.0732C50.2331 66.0895 49.9971 66.0977 49.792 66.0977ZM54.8262 66.0977C54.4323 66.0977 54.0889 66.0846 53.7959 66.0586C53.5029 66.0358 53.2409 66 53.0098 65.9512L53.1514 64.8184C53.5322 64.8704 53.8594 64.9095 54.1328 64.9355C54.4062 64.9616 54.6374 64.9746 54.8262 64.9746C55.3014 64.9746 55.6449 64.9355 55.8564 64.8574C56.0713 64.7793 56.1787 64.6556 56.1787 64.4863C56.1787 64.3789 56.1478 64.2959 56.0859 64.2373C56.0241 64.1787 55.9264 64.1315 55.793 64.0957L54.3037 63.6807C53.8936 63.5667 53.5876 63.4105 53.3857 63.2119C53.1872 63.0101 53.0879 62.7269 53.0879 62.3623C53.0879 61.8024 53.3141 61.3906 53.7666 61.127C54.2223 60.86 54.9303 60.7266 55.8906 60.7266C56.125 60.7266 56.3561 60.7347 56.584 60.751C56.8151 60.7673 57.056 60.7917 57.3066 60.8242L57.1797 61.918C56.8965 61.8919 56.6475 61.874 56.4326 61.8643C56.221 61.8545 56.0306 61.8496 55.8613 61.8496C55.3242 61.8496 54.9336 61.887 54.6895 61.9619C54.4486 62.0368 54.3281 62.1572 54.3281 62.3232C54.3281 62.4339 54.3639 62.5153 54.4355 62.5674C54.5072 62.6195 54.6178 62.665 54.7676 62.7041L56.0176 63.041C56.5026 63.1647 56.8607 63.3389 57.0918 63.5635C57.3262 63.7881 57.4434 64.0941 57.4434 64.4814C57.4434 65.0348 57.2301 65.4434 56.8037 65.707C56.3805 65.9674 55.7214 66.0977 54.8262 66.0977ZM60.6855 66.0977C60.2917 66.0977 59.9482 66.0846 59.6553 66.0586C59.3623 66.0358 59.1003 66 58.8691 65.9512L59.0107 64.8184C59.3916 64.8704 59.7188 64.9095 59.9922 64.9355C60.2656 64.9616 60.4967 64.9746 60.6855 64.9746C61.1608 64.9746 61.5042 64.9355 61.7158 64.8574C61.9307 64.7793 62.0381 64.6556 62.0381 64.4863C62.0381 64.3789 62.0072 64.2959 61.9453 64.2373C61.8835 64.1787 61.7858 64.1315 61.6523 64.0957L60.1631 63.6807C59.7529 63.5667 59.4469 63.4105 59.2451 63.2119C59.0465 63.0101 58.9473 62.7269 58.9473 62.3623C58.9473 61.8024 59.1735 61.3906 59.626 61.127C60.0817 60.86 60.7897 60.7266 61.75 60.7266C61.9844 60.7266 62.2155 60.7347 62.4434 60.751C62.6745 60.7673 62.9154 60.7917 63.166 60.8242L63.0391 61.918C62.7559 61.8919 62.5068 61.874 62.292 61.8643C62.0804 61.8545 61.89 61.8496 61.7207 61.8496C61.1836 61.8496 60.793 61.887 60.5488 61.9619C60.3079 62.0368 60.1875 62.1572 60.1875 62.3232C60.1875 62.4339 60.2233 62.5153 60.2949 62.5674C60.3665 62.6195 60.4772 62.665 60.627 62.7041L61.877 63.041C62.362 63.1647 62.7201 63.3389 62.9512 63.5635C63.1855 63.7881 63.3027 64.0941 63.3027 64.4814C63.3027 65.0348 63.0895 65.4434 62.6631 65.707C62.2399 65.9674 61.5807 66.0977 60.6855 66.0977ZM66.6865 66V61.1172H67.8877V66H66.6865ZM64.748 66V64.9062H66.7842V66H64.748ZM67.79 66V64.9062H69.4453V66H67.79ZM65.041 61.918V60.8242H67.8877V61.918H65.041ZM67.2383 60.0771C67.0072 60.0771 66.8167 60.0023 66.667 59.8525C66.5173 59.7028 66.4424 59.5124 66.4424 59.2812C66.4424 59.0501 66.5173 58.8597 66.667 58.71C66.8167 58.5602 67.0072 58.4854 67.2383 58.4854C67.4694 58.4854 67.6598 58.5602 67.8096 58.71C67.9593 58.8597 68.0342 59.0501 68.0342 59.2812C68.0342 59.5124 67.9593 59.7028 67.8096 59.8525C67.6598 60.0023 67.4694 60.0771 67.2383 60.0771ZM72.8047 66.0977C72.0723 66.0977 71.5026 65.8633 71.0957 65.3945C70.6921 64.9258 70.4902 64.265 70.4902 63.4121C70.4902 62.556 70.6921 61.8952 71.0957 61.4297C71.5026 60.9609 72.0723 60.7266 72.8047 60.7266C73.5404 60.7266 74.11 60.9609 74.5137 61.4297C74.9173 61.8952 75.1191 62.556 75.1191 63.4121C75.1191 64.265 74.9173 64.9258 74.5137 65.3945C74.11 65.8633 73.5404 66.0977 72.8047 66.0977ZM72.8047 64.9746C73.1497 64.9746 73.415 64.8395 73.6006 64.5693C73.7861 64.2959 73.8789 63.9102 73.8789 63.4121C73.8789 62.9108 73.7845 62.5251 73.5957 62.2549C73.4102 61.9847 73.1465 61.8496 72.8047 61.8496C72.4629 61.8496 72.1976 61.9847 72.0088 62.2549C71.8232 62.5251 71.7305 62.9108 71.7305 63.4121C71.7305 63.9102 71.8232 64.2959 72.0088 64.5693C72.1976 64.8395 72.4629 64.9746 72.8047 64.9746ZM79.6162 66V62.8262C79.6162 62.5137 79.5446 62.2728 79.4014 62.1035C79.2581 61.9342 79.0563 61.8496 78.7959 61.8496C78.0732 61.8496 77.7119 62.3281 77.7119 63.2852L77.4092 61.7617H77.8291C77.8682 61.4134 77.9886 61.1546 78.1904 60.9854C78.3955 60.8128 78.6999 60.7266 79.1035 60.7266C79.6504 60.7266 80.0736 60.8926 80.373 61.2246C80.6725 61.5566 80.8223 62.0254 80.8223 62.6309V66H79.6162ZM76.5059 66V60.8242H77.5898L77.7119 61.918V66H76.5059Z" fill="black"/>
<path d="M125.93 22.0977C124.191 22.0977 123.322 20.9258 123.322 18.582C123.322 16.1732 124.191 14.9688 125.93 14.9688C127.668 14.9688 128.537 16.1732 128.537 18.582C128.537 20.9258 127.668 22.0977 125.93 22.0977ZM125.93 20.999C126.848 20.999 127.307 20.1934 127.307 18.582C127.307 16.9056 126.848 16.0674 125.93 16.0674C125.012 16.0674 124.553 16.9056 124.553 18.582C124.553 20.1934 125.012 20.999 125.93 20.999ZM129.631 24.2461V16.8242H130.739L130.837 17.918V24.2461H129.631ZM132.253 22.0977C131.879 22.0977 131.577 22.0098 131.35 21.834C131.122 21.6582 130.985 21.401 130.939 21.0625H130.485L130.837 19.4854C130.837 19.9997 130.923 20.3805 131.096 20.6279C131.271 20.8753 131.553 20.999 131.94 20.999C132.315 20.999 132.598 20.8672 132.79 20.6035C132.982 20.3398 133.078 19.9508 133.078 19.4365C133.078 18.9157 132.98 18.5169 132.785 18.2402C132.59 17.9635 132.308 17.8252 131.94 17.8252C131.576 17.8252 131.301 17.9505 131.115 18.2012C130.93 18.4486 130.837 18.8294 130.837 19.3438L130.515 17.7617H130.905C130.961 17.4232 131.099 17.166 131.32 16.9902C131.542 16.8145 131.851 16.7266 132.248 16.7266C132.909 16.7266 133.415 16.9593 133.767 17.4248C134.121 17.8903 134.299 18.5609 134.299 19.4365C134.299 20.2992 134.121 20.9583 133.767 21.4141C133.415 21.8698 132.91 22.0977 132.253 22.0977ZM138.073 22.0977C137.185 22.0977 136.498 21.8665 136.013 21.4043C135.528 20.9388 135.285 20.2715 135.285 19.4023C135.285 18.556 135.49 17.8984 135.9 17.4297C136.314 16.9609 136.895 16.7266 137.644 16.7266C138.366 16.7266 138.924 16.9414 139.318 17.3711C139.715 17.8008 139.914 18.4242 139.914 19.2412C139.914 19.4788 139.904 19.7018 139.885 19.9102H136.154V19.041H138.762C138.762 18.6471 138.664 18.3444 138.469 18.1328C138.273 17.9212 138.002 17.8154 137.653 17.8154C137.272 17.8154 136.976 17.9489 136.765 18.2158C136.553 18.4827 136.447 18.862 136.447 19.3535C136.447 19.8841 136.599 20.2894 136.901 20.5693C137.204 20.846 137.634 20.9844 138.19 20.9844C138.418 20.9844 138.641 20.973 138.859 20.9502C139.081 20.9242 139.305 20.89 139.533 20.8477L139.66 21.9609C139.341 22.0195 139.048 22.057 138.781 22.0732C138.514 22.0895 138.278 22.0977 138.073 22.0977ZM143.239 19.7734L142.937 18.0547H143.366C143.422 17.1693 143.876 16.7266 144.729 16.7266C145.236 16.7266 145.617 16.8958 145.871 17.2344C146.125 17.5729 146.252 18.084 146.252 18.7676H145.051C145.051 18.4323 144.994 18.1914 144.88 18.0449C144.769 17.8984 144.59 17.8252 144.343 17.8252C143.972 17.8252 143.695 17.9945 143.513 18.333C143.33 18.6715 143.239 19.1517 143.239 19.7734ZM140.92 22V20.9551H144.475V22H140.92ZM142.038 22V16.8242H143.044L143.239 18.3086V22H142.038ZM141.115 17.8691V16.8242H142.976L143.073 17.8691H141.115ZM150.363 22.0488L150.271 20.5156L150.202 19.9395V18.7969C150.202 18.4941 150.083 18.2728 149.846 18.1328C149.608 17.9896 149.253 17.9115 148.781 17.8984L147.492 17.8643L147.59 16.7754L148.684 16.79C149.589 16.8031 150.261 16.9886 150.7 17.3467C151.14 17.7015 151.359 18.2207 151.359 18.9043V20.916L152.141 21.0234V22L150.363 22.0488ZM148.581 22.0977C148.034 22.0977 147.609 21.9642 147.307 21.6973C147.007 21.4303 146.857 21.0527 146.857 20.5645C146.857 19.998 147.059 19.5635 147.463 19.2607C147.867 18.958 148.438 18.8066 149.177 18.8066C149.47 18.8066 149.727 18.8229 149.948 18.8555C150.17 18.888 150.381 18.9385 150.583 19.0068L150.368 19.9053C150.157 19.8564 149.96 19.8288 149.777 19.8223C149.595 19.8125 149.405 19.8076 149.206 19.8076C148.438 19.8076 148.054 20.0339 148.054 20.4863C148.054 20.6849 148.12 20.8363 148.254 20.9404C148.391 21.0446 148.588 21.0967 148.845 21.0967C149.144 21.0967 149.395 21.043 149.597 20.9355C149.799 20.8249 149.95 20.6865 150.051 20.5205C150.152 20.3512 150.202 20.1771 150.202 19.998V19.5781L150.437 20.9062H150.021L150.192 20.75C150.186 21.0495 150.116 21.3001 149.982 21.502C149.852 21.7005 149.668 21.8503 149.431 21.9512C149.193 22.0488 148.91 22.0977 148.581 22.0977ZM156.262 22.0977C155.412 22.0977 154.799 21.9251 154.421 21.5801C154.043 21.235 153.854 20.6833 153.854 19.9248V19.168H155.056V19.8271C155.056 20.2275 155.157 20.5189 155.358 20.7012C155.563 20.8835 155.897 20.9746 156.359 20.9746C156.512 20.9746 156.677 20.9665 156.853 20.9502C157.028 20.9307 157.229 20.9062 157.453 20.877L157.57 21.9805C157.352 22.0195 157.137 22.0488 156.926 22.0684C156.717 22.0879 156.496 22.0977 156.262 22.0977ZM153.854 19.5098V15.2617H155.056V19.5098H153.854ZM152.59 17.918V16.8242H157.375V17.918H152.59ZM160.827 22V17.1172H162.028V22H160.827ZM158.889 22V20.9062H160.925V22H158.889ZM161.931 22V20.9062H163.586V22H161.931ZM159.182 17.918V16.8242H162.028V17.918H159.182ZM161.379 16.0771C161.148 16.0771 160.957 16.0023 160.808 15.8525C160.658 15.7028 160.583 15.5124 160.583 15.2812C160.583 15.0501 160.658 14.8597 160.808 14.71C160.957 14.5602 161.148 14.4854 161.379 14.4854C161.61 14.4854 161.8 14.5602 161.95 14.71C162.1 14.8597 162.175 15.0501 162.175 15.2812C162.175 15.5124 162.1 15.7028 161.95 15.8525C161.8 16.0023 161.61 16.0771 161.379 16.0771ZM166.945 22.0977C166.213 22.0977 165.643 21.8633 165.236 21.3945C164.833 20.9258 164.631 20.265 164.631 19.4121C164.631 18.556 164.833 17.8952 165.236 17.4297C165.643 16.9609 166.213 16.7266 166.945 16.7266C167.681 16.7266 168.251 16.9609 168.654 17.4297C169.058 17.8952 169.26 18.556 169.26 19.4121C169.26 20.265 169.058 20.9258 168.654 21.3945C168.251 21.8633 167.681 22.0977 166.945 22.0977ZM166.945 20.9746C167.29 20.9746 167.556 20.8395 167.741 20.5693C167.927 20.2959 168.02 19.9102 168.02 19.4121C168.02 18.9108 167.925 18.5251 167.736 18.2549C167.551 17.9847 167.287 17.8496 166.945 17.8496C166.604 17.8496 166.338 17.9847 166.149 18.2549C165.964 18.5251 165.871 18.9108 165.871 19.4121C165.871 19.9102 165.964 20.2959 166.149 20.5693C166.338 20.8395 166.604 20.9746 166.945 20.9746ZM173.757 22V18.8262C173.757 18.5137 173.685 18.2728 173.542 18.1035C173.399 17.9342 173.197 17.8496 172.937 17.8496C172.214 17.8496 171.853 18.3281 171.853 19.2852L171.55 17.7617H171.97C172.009 17.4134 172.129 17.1546 172.331 16.9854C172.536 16.8128 172.84 16.7266 173.244 16.7266C173.791 16.7266 174.214 16.8926 174.514 17.2246C174.813 17.5566 174.963 18.0254 174.963 18.6309V22H173.757ZM170.646 22V16.8242H171.73L171.853 17.918V22H170.646ZM185.559 22.0977C184.709 22.0977 184.095 21.9251 183.718 21.5801C183.34 21.235 183.151 20.6833 183.151 19.9248V19.168H184.353V19.8271C184.353 20.2275 184.453 20.5189 184.655 20.7012C184.86 20.8835 185.194 20.9746 185.656 20.9746C185.809 20.9746 185.974 20.9665 186.149 20.9502C186.325 20.9307 186.525 20.9062 186.75 20.877L186.867 21.9805C186.649 22.0195 186.434 22.0488 186.223 22.0684C186.014 22.0879 185.793 22.0977 185.559 22.0977ZM183.151 19.5098V15.2617H184.353V19.5098H183.151ZM181.887 17.918V16.8242H186.672V17.918H181.887ZM187.771 24.3438L187.722 23.2842L188.581 23.1865C188.9 23.1475 189.174 23.0612 189.401 22.9277C189.629 22.7943 189.825 22.5957 189.987 22.332C190.15 22.0684 190.292 21.7233 190.412 21.2969L191.677 16.8242H192.946L191.477 21.541C191.281 22.1628 191.058 22.6624 190.808 23.04C190.56 23.4176 190.266 23.7008 189.924 23.8896C189.582 24.0785 189.174 24.1973 188.698 24.2461L187.771 24.3438ZM189.538 22L187.673 16.8242H188.942L190.388 21.0137H190.593V22H189.538ZM194.084 24.2461V16.8242H195.192L195.29 17.918V24.2461H194.084ZM196.706 22.0977C196.332 22.0977 196.031 22.0098 195.803 21.834C195.575 21.6582 195.438 21.401 195.393 21.0625H194.938L195.29 19.4854C195.29 19.9997 195.376 20.3805 195.549 20.6279C195.725 20.8753 196.006 20.999 196.394 20.999C196.768 20.999 197.051 20.8672 197.243 20.6035C197.435 20.3398 197.531 19.9508 197.531 19.4365C197.531 18.9157 197.434 18.5169 197.238 18.2402C197.043 17.9635 196.761 17.8252 196.394 17.8252C196.029 17.8252 195.754 17.9505 195.568 18.2012C195.383 18.4486 195.29 18.8294 195.29 19.3438L194.968 17.7617H195.358C195.414 17.4232 195.552 17.166 195.773 16.9902C195.995 16.8145 196.304 16.7266 196.701 16.7266C197.362 16.7266 197.868 16.9593 198.22 17.4248C198.575 17.8903 198.752 18.5609 198.752 19.4365C198.752 20.2992 198.575 20.9583 198.22 21.4141C197.868 21.8698 197.364 22.0977 196.706 22.0977ZM202.526 22.0977C201.638 22.0977 200.951 21.8665 200.466 21.4043C199.981 20.9388 199.738 20.2715 199.738 19.4023C199.738 18.556 199.943 17.8984 200.354 17.4297C200.767 16.9609 201.348 16.7266 202.097 16.7266C202.819 16.7266 203.378 16.9414 203.771 17.3711C204.169 17.8008 204.367 18.4242 204.367 19.2412C204.367 19.4788 204.357 19.7018 204.338 19.9102H200.607V19.041H203.215C203.215 18.6471 203.117 18.3444 202.922 18.1328C202.727 17.9212 202.455 17.8154 202.106 17.8154C201.726 17.8154 201.429 17.9489 201.218 18.2158C201.006 18.4827 200.9 18.862 200.9 19.3535C200.9 19.8841 201.052 20.2894 201.354 20.5693C201.657 20.846 202.087 20.9844 202.644 20.9844C202.871 20.9844 203.094 20.973 203.312 20.9502C203.534 20.9242 203.758 20.89 203.986 20.8477L204.113 21.9609C203.794 22.0195 203.501 22.057 203.234 22.0732C202.967 22.0895 202.731 22.0977 202.526 22.0977Z" fill="black"/>
<rect x="124" y="25" width="80" height="23" rx="3" fill="#D9D9D9" stroke="black" stroke-width="2"/>
<path d="M130.334 40V33.0664H131.516V40H130.334ZM128.771 40V38.9307H133.088V40H128.771ZM128.771 34.1309V33.0664H133.088V34.1309H128.771ZM135.739 40V35.2637C135.739 33.4733 136.584 32.5781 138.273 32.5781C138.661 32.5781 139.035 32.6107 139.396 32.6758L139.279 33.7695C139.064 33.7435 138.876 33.7256 138.713 33.7158C138.55 33.7061 138.394 33.7012 138.244 33.7012C137.375 33.7012 136.94 34.2057 136.94 35.2148V40H135.739ZM134.143 36.9434V35.8984H139.025V36.9434H134.143Z" fill="black"/>
<path d="M196.567 39.25C196.76 39.5831 197.24 39.5831 197.433 39.25L200.031 34.75C200.224 34.4167 199.983 34 199.598 34H194.402C194.017 34 193.776 34.4167 193.969 34.75L196.567 39.25Z" fill="#D9D9D9" stroke="black"/>
</svg>
