<svg width="246" height="148" viewBox="0 0 246 148" fill="none" xmlns="http://www.w3.org/2000/svg">
<rect width="246" height="148" fill="#1E1E1E"/>
<rect x="-396" y="-159" width="1920" height="1080" fill="white"/>
<path d="M15 2.5H19C20.2728 2.5 21.6998 3.62377 22.1943 5.56641C24.6722 15.2991 33.4921 22.5 44 22.5C54.5079 22.5 63.3278 15.2991 65.8057 5.56641C66.3002 3.62377 67.7272 2.5 69 2.5H186C217.756 2.5 243.5 28.2436 243.5 60V68C243.5 99.7556 217.743 125.5 185.986 125.5H69C64.75 125.5 61.8279 128.924 60.96 132.333C59.0325 139.904 52.1667 145.5 44 145.5C35.8333 145.5 28.9675 139.904 27.04 132.333C26.1721 128.924 23.25 125.5 19 125.5H15.0234C8.11479 125.5 2.5 119.898 2.5 113V15C2.5 8.20418 7.92311 2.67484 14.6777 2.50391L15 2.5Z" fill="#D9D9D9" stroke="black" stroke-width="5"/>
<path d="M20.5 69H100.5C102.157 69 103.5 70.3431 103.5 72V89C103.5 90.6569 102.157 92 100.5 92H20.5C18.8431 92 17.5 90.6569 17.5 89V72C17.5 70.3431 18.8431 69 20.5 69Z" fill="#D9D9D9" stroke="black" stroke-width="2"/>
<rect x="135" y="69" width="87" height="23" rx="3" fill="#D9D9D9" stroke="black" stroke-width="2"/>
<rect x="106" y="25" width="80" height="23" rx="3" fill="#D9D9D9" stroke="black" stroke-width="2"/>
<path d="M19.501 66L17.9727 60.6387H17.4697V59.0664H18.3584L19.8867 64.4277H20.1846V66H19.501ZM16.6738 66V59.0664H17.8213V66H16.6738ZM20.0381 66V59.0664H21.1855V66H20.0381ZM25.7852 66.0488L25.6924 64.5156L25.624 63.9395V62.7969C25.624 62.4941 25.5052 62.2728 25.2676 62.1328C25.0299 61.9896 24.6751 61.9115 24.2031 61.8984L22.9141 61.8643L23.0117 60.7754L24.1055 60.79C25.0104 60.8031 25.6826 60.9886 26.1221 61.3467C26.5615 61.7015 26.7812 62.2207 26.7812 62.9043V64.916L27.5625 65.0234V66L25.7852 66.0488ZM24.0029 66.0977C23.4561 66.0977 23.0312 65.9642 22.7285 65.6973C22.429 65.4303 22.2793 65.0527 22.2793 64.5645C22.2793 63.998 22.4811 63.5635 22.8848 63.2607C23.2884 62.958 23.8597 62.8066 24.5986 62.8066C24.8916 62.8066 25.1488 62.8229 25.3701 62.8555C25.5915 62.888 25.8031 62.9385 26.0049 63.0068L25.79 63.9053C25.5785 63.8564 25.3815 63.8288 25.1992 63.8223C25.0169 63.8125 24.8265 63.8076 24.6279 63.8076C23.8597 63.8076 23.4756 64.0339 23.4756 64.4863C23.4756 64.6849 23.5423 64.8363 23.6758 64.9404C23.8125 65.0446 24.0094 65.0967 24.2666 65.0967C24.5661 65.0967 24.8167 65.043 25.0186 64.9355C25.2204 64.8249 25.3717 64.6865 25.4727 64.5205C25.5736 64.3512 25.624 64.1771 25.624 63.998V63.5781L25.8584 64.9062H25.4434L25.6143 64.75C25.6077 65.0495 25.5378 65.3001 25.4043 65.502C25.2741 65.7005 25.0902 65.8503 24.8525 65.9512C24.6149 66.0488 24.3317 66.0977 24.0029 66.0977ZM31.8887 66V62.3135C31.8887 61.9554 31.7731 61.7764 31.542 61.7764C31.2653 61.7764 31.127 61.9863 31.127 62.4062L30.7754 61.4688H31.2002C31.223 61.2507 31.3076 61.0732 31.4541 60.9365C31.6038 60.7965 31.8089 60.7266 32.0693 60.7266C32.4209 60.7266 32.6764 60.8226 32.8359 61.0146C32.9987 61.2067 33.0801 61.5176 33.0801 61.9473V66H31.8887ZM28.2168 66V60.8242H29.2959L29.4131 61.918V66H28.2168ZM30.1846 66V62.2158C30.1846 61.9229 30.0674 61.7764 29.833 61.7764C29.5531 61.7764 29.4131 61.9863 29.4131 62.4062L29.1104 61.4688H29.4668C29.5254 60.974 29.8005 60.7266 30.292 60.7266C30.5524 60.7266 30.7559 60.8193 30.9023 61.0049C31.0521 61.1904 31.127 61.472 31.127 61.8496V66H30.1846ZM36.9326 66.0977C36.0439 66.0977 35.3571 65.8665 34.8721 65.4043C34.387 64.9388 34.1445 64.2715 34.1445 63.4023C34.1445 62.556 34.3496 61.8984 34.7598 61.4297C35.1732 60.9609 35.7542 60.7266 36.5029 60.7266C37.2256 60.7266 37.7839 60.9414 38.1777 61.3711C38.5749 61.8008 38.7734 62.4242 38.7734 63.2412C38.7734 63.4788 38.7637 63.7018 38.7441 63.9102H35.0137V63.041H37.6211C37.6211 62.6471 37.5234 62.3444 37.3281 62.1328C37.1328 61.9212 36.861 61.8154 36.5127 61.8154C36.1318 61.8154 35.8356 61.9489 35.624 62.2158C35.4124 62.4827 35.3066 62.862 35.3066 63.3535C35.3066 63.8841 35.458 64.2894 35.7607 64.5693C36.0635 64.846 36.4932 64.9844 37.0498 64.9844C37.2777 64.9844 37.5007 64.973 37.7188 64.9502C37.9401 64.9242 38.1647 64.89 38.3926 64.8477L38.5195 65.9609C38.2005 66.0195 37.9076 66.057 37.6406 66.0732C37.3737 66.0895 37.1377 66.0977 36.9326 66.0977Z" fill="black"/>
<path d="M107.93 22.0977C106.191 22.0977 105.322 20.9258 105.322 18.582C105.322 16.1732 106.191 14.9688 107.93 14.9688C109.668 14.9688 110.537 16.1732 110.537 18.582C110.537 20.9258 109.668 22.0977 107.93 22.0977ZM107.93 20.999C108.848 20.999 109.307 20.1934 109.307 18.582C109.307 16.9056 108.848 16.0674 107.93 16.0674C107.012 16.0674 106.553 16.9056 106.553 18.582C106.553 20.1934 107.012 20.999 107.93 20.999ZM111.631 24.2461V16.8242H112.739L112.837 17.918V24.2461H111.631ZM114.253 22.0977C113.879 22.0977 113.577 22.0098 113.35 21.834C113.122 21.6582 112.985 21.401 112.939 21.0625H112.485L112.837 19.4854C112.837 19.9997 112.923 20.3805 113.096 20.6279C113.271 20.8753 113.553 20.999 113.94 20.999C114.315 20.999 114.598 20.8672 114.79 20.6035C114.982 20.3398 115.078 19.9508 115.078 19.4365C115.078 18.9157 114.98 18.5169 114.785 18.2402C114.59 17.9635 114.308 17.8252 113.94 17.8252C113.576 17.8252 113.301 17.9505 113.115 18.2012C112.93 18.4486 112.837 18.8294 112.837 19.3438L112.515 17.7617H112.905C112.961 17.4232 113.099 17.166 113.32 16.9902C113.542 16.8145 113.851 16.7266 114.248 16.7266C114.909 16.7266 115.415 16.9593 115.767 17.4248C116.121 17.8903 116.299 18.5609 116.299 19.4365C116.299 20.2992 116.121 20.9583 115.767 21.4141C115.415 21.8698 114.91 22.0977 114.253 22.0977ZM120.073 22.0977C119.185 22.0977 118.498 21.8665 118.013 21.4043C117.528 20.9388 117.285 20.2715 117.285 19.4023C117.285 18.556 117.49 17.8984 117.9 17.4297C118.314 16.9609 118.895 16.7266 119.644 16.7266C120.366 16.7266 120.924 16.9414 121.318 17.3711C121.715 17.8008 121.914 18.4242 121.914 19.2412C121.914 19.4788 121.904 19.7018 121.885 19.9102H118.154V19.041H120.762C120.762 18.6471 120.664 18.3444 120.469 18.1328C120.273 17.9212 120.002 17.8154 119.653 17.8154C119.272 17.8154 118.976 17.9489 118.765 18.2158C118.553 18.4827 118.447 18.862 118.447 19.3535C118.447 19.8841 118.599 20.2894 118.901 20.5693C119.204 20.846 119.634 20.9844 120.19 20.9844C120.418 20.9844 120.641 20.973 120.859 20.9502C121.081 20.9242 121.305 20.89 121.533 20.8477L121.66 21.9609C121.341 22.0195 121.048 22.057 120.781 22.0732C120.514 22.0895 120.278 22.0977 120.073 22.0977ZM125.239 19.7734L124.937 18.0547H125.366C125.422 17.1693 125.876 16.7266 126.729 16.7266C127.236 16.7266 127.617 16.8958 127.871 17.2344C128.125 17.5729 128.252 18.084 128.252 18.7676H127.051C127.051 18.4323 126.994 18.1914 126.88 18.0449C126.769 17.8984 126.59 17.8252 126.343 17.8252C125.972 17.8252 125.695 17.9945 125.513 18.333C125.33 18.6715 125.239 19.1517 125.239 19.7734ZM122.92 22V20.9551H126.475V22H122.92ZM124.038 22V16.8242H125.044L125.239 18.3086V22H124.038ZM123.115 17.8691V16.8242H124.976L125.073 17.8691H123.115ZM132.363 22.0488L132.271 20.5156L132.202 19.9395V18.7969C132.202 18.4941 132.083 18.2728 131.846 18.1328C131.608 17.9896 131.253 17.9115 130.781 17.8984L129.492 17.8643L129.59 16.7754L130.684 16.79C131.589 16.8031 132.261 16.9886 132.7 17.3467C133.14 17.7015 133.359 18.2207 133.359 18.9043V20.916L134.141 21.0234V22L132.363 22.0488ZM130.581 22.0977C130.034 22.0977 129.609 21.9642 129.307 21.6973C129.007 21.4303 128.857 21.0527 128.857 20.5645C128.857 19.998 129.059 19.5635 129.463 19.2607C129.867 18.958 130.438 18.8066 131.177 18.8066C131.47 18.8066 131.727 18.8229 131.948 18.8555C132.17 18.888 132.381 18.9385 132.583 19.0068L132.368 19.9053C132.157 19.8564 131.96 19.8288 131.777 19.8223C131.595 19.8125 131.405 19.8076 131.206 19.8076C130.438 19.8076 130.054 20.0339 130.054 20.4863C130.054 20.6849 130.12 20.8363 130.254 20.9404C130.391 21.0446 130.588 21.0967 130.845 21.0967C131.144 21.0967 131.395 21.043 131.597 20.9355C131.799 20.8249 131.95 20.6865 132.051 20.5205C132.152 20.3512 132.202 20.1771 132.202 19.998V19.5781L132.437 20.9062H132.021L132.192 20.75C132.186 21.0495 132.116 21.3001 131.982 21.502C131.852 21.7005 131.668 21.8503 131.431 21.9512C131.193 22.0488 130.91 22.0977 130.581 22.0977ZM138.262 22.0977C137.412 22.0977 136.799 21.9251 136.421 21.5801C136.043 21.235 135.854 20.6833 135.854 19.9248V19.168H137.056V19.8271C137.056 20.2275 137.157 20.5189 137.358 20.7012C137.563 20.8835 137.897 20.9746 138.359 20.9746C138.512 20.9746 138.677 20.9665 138.853 20.9502C139.028 20.9307 139.229 20.9062 139.453 20.877L139.57 21.9805C139.352 22.0195 139.137 22.0488 138.926 22.0684C138.717 22.0879 138.496 22.0977 138.262 22.0977ZM135.854 19.5098V15.2617H137.056V19.5098H135.854ZM134.59 17.918V16.8242H139.375V17.918H134.59ZM142.827 22V17.1172H144.028V22H142.827ZM140.889 22V20.9062H142.925V22H140.889ZM143.931 22V20.9062H145.586V22H143.931ZM141.182 17.918V16.8242H144.028V17.918H141.182ZM143.379 16.0771C143.148 16.0771 142.957 16.0023 142.808 15.8525C142.658 15.7028 142.583 15.5124 142.583 15.2812C142.583 15.0501 142.658 14.8597 142.808 14.71C142.957 14.5602 143.148 14.4854 143.379 14.4854C143.61 14.4854 143.8 14.5602 143.95 14.71C144.1 14.8597 144.175 15.0501 144.175 15.2812C144.175 15.5124 144.1 15.7028 143.95 15.8525C143.8 16.0023 143.61 16.0771 143.379 16.0771ZM148.945 22.0977C148.213 22.0977 147.643 21.8633 147.236 21.3945C146.833 20.9258 146.631 20.265 146.631 19.4121C146.631 18.556 146.833 17.8952 147.236 17.4297C147.643 16.9609 148.213 16.7266 148.945 16.7266C149.681 16.7266 150.251 16.9609 150.654 17.4297C151.058 17.8952 151.26 18.556 151.26 19.4121C151.26 20.265 151.058 20.9258 150.654 21.3945C150.251 21.8633 149.681 22.0977 148.945 22.0977ZM148.945 20.9746C149.29 20.9746 149.556 20.8395 149.741 20.5693C149.927 20.2959 150.02 19.9102 150.02 19.4121C150.02 18.9108 149.925 18.5251 149.736 18.2549C149.551 17.9847 149.287 17.8496 148.945 17.8496C148.604 17.8496 148.338 17.9847 148.149 18.2549C147.964 18.5251 147.871 18.9108 147.871 19.4121C147.871 19.9102 147.964 20.2959 148.149 20.5693C148.338 20.8395 148.604 20.9746 148.945 20.9746ZM155.757 22V18.8262C155.757 18.5137 155.685 18.2728 155.542 18.1035C155.399 17.9342 155.197 17.8496 154.937 17.8496C154.214 17.8496 153.853 18.3281 153.853 19.2852L153.55 17.7617H153.97C154.009 17.4134 154.129 17.1546 154.331 16.9854C154.536 16.8128 154.84 16.7266 155.244 16.7266C155.791 16.7266 156.214 16.8926 156.514 17.2246C156.813 17.5566 156.963 18.0254 156.963 18.6309V22H155.757ZM152.646 22V16.8242H153.73L153.853 17.918V22H152.646ZM167.559 22.0977C166.709 22.0977 166.095 21.9251 165.718 21.5801C165.34 21.235 165.151 20.6833 165.151 19.9248V19.168H166.353V19.8271C166.353 20.2275 166.453 20.5189 166.655 20.7012C166.86 20.8835 167.194 20.9746 167.656 20.9746C167.809 20.9746 167.974 20.9665 168.149 20.9502C168.325 20.9307 168.525 20.9062 168.75 20.877L168.867 21.9805C168.649 22.0195 168.434 22.0488 168.223 22.0684C168.014 22.0879 167.793 22.0977 167.559 22.0977ZM165.151 19.5098V15.2617H166.353V19.5098H165.151ZM163.887 17.918V16.8242H168.672V17.918H163.887ZM169.771 24.3438L169.722 23.2842L170.581 23.1865C170.9 23.1475 171.174 23.0612 171.401 22.9277C171.629 22.7943 171.825 22.5957 171.987 22.332C172.15 22.0684 172.292 21.7233 172.412 21.2969L173.677 16.8242H174.946L173.477 21.541C173.281 22.1628 173.058 22.6624 172.808 23.04C172.56 23.4176 172.266 23.7008 171.924 23.8896C171.582 24.0785 171.174 24.1973 170.698 24.2461L169.771 24.3438ZM171.538 22L169.673 16.8242H170.942L172.388 21.0137H172.593V22H171.538ZM176.084 24.2461V16.8242H177.192L177.29 17.918V24.2461H176.084ZM178.706 22.0977C178.332 22.0977 178.031 22.0098 177.803 21.834C177.575 21.6582 177.438 21.401 177.393 21.0625H176.938L177.29 19.4854C177.29 19.9997 177.376 20.3805 177.549 20.6279C177.725 20.8753 178.006 20.999 178.394 20.999C178.768 20.999 179.051 20.8672 179.243 20.6035C179.435 20.3398 179.531 19.9508 179.531 19.4365C179.531 18.9157 179.434 18.5169 179.238 18.2402C179.043 17.9635 178.761 17.8252 178.394 17.8252C178.029 17.8252 177.754 17.9505 177.568 18.2012C177.383 18.4486 177.29 18.8294 177.29 19.3438L176.968 17.7617H177.358C177.414 17.4232 177.552 17.166 177.773 16.9902C177.995 16.8145 178.304 16.7266 178.701 16.7266C179.362 16.7266 179.868 16.9593 180.22 17.4248C180.575 17.8903 180.752 18.5609 180.752 19.4365C180.752 20.2992 180.575 20.9583 180.22 21.4141C179.868 21.8698 179.364 22.0977 178.706 22.0977ZM184.526 22.0977C183.638 22.0977 182.951 21.8665 182.466 21.4043C181.981 20.9388 181.738 20.2715 181.738 19.4023C181.738 18.556 181.943 17.8984 182.354 17.4297C182.767 16.9609 183.348 16.7266 184.097 16.7266C184.819 16.7266 185.378 16.9414 185.771 17.3711C186.169 17.8008 186.367 18.4242 186.367 19.2412C186.367 19.4788 186.357 19.7018 186.338 19.9102H182.607V19.041H185.215C185.215 18.6471 185.117 18.3444 184.922 18.1328C184.727 17.9212 184.455 17.8154 184.106 17.8154C183.726 17.8154 183.429 17.9489 183.218 18.2158C183.006 18.4827 182.9 18.862 182.9 19.3535C182.9 19.8841 183.052 20.2894 183.354 20.5693C183.657 20.846 184.087 20.9844 184.644 20.9844C184.871 20.9844 185.094 20.973 185.312 20.9502C185.534 20.9242 185.758 20.89 185.986 20.8477L186.113 21.9609C185.794 22.0195 185.501 22.057 185.234 22.0732C184.967 22.0895 184.731 22.0977 184.526 22.0977Z" fill="black"/>
<path d="M112.69 40.0977C112.297 40.0977 111.919 40.0651 111.558 40C111.2 39.9349 110.874 39.8405 110.581 39.7168L110.737 38.5303C111.095 38.6833 111.447 38.8005 111.792 38.8818C112.137 38.96 112.463 38.999 112.769 38.999C113.159 38.999 113.454 38.9307 113.652 38.7939C113.854 38.654 113.955 38.4505 113.955 38.1836C113.955 37.8353 113.757 37.57 113.359 37.3877L112.28 36.875C111.795 36.6471 111.421 36.3656 111.157 36.0303C110.897 35.695 110.767 35.3092 110.767 34.873C110.767 34.2676 110.959 33.7988 111.343 33.4668C111.73 33.1348 112.277 32.9688 112.983 32.9688C113.426 32.9688 113.833 33.042 114.204 33.1885C114.578 33.3317 114.92 33.5498 115.229 33.8428L114.424 34.7314C114.173 34.5101 113.929 34.3441 113.691 34.2334C113.457 34.1195 113.223 34.0625 112.988 34.0625C112.682 34.0625 112.445 34.1325 112.275 34.2725C112.106 34.4092 112.021 34.6094 112.021 34.873C112.021 35.0553 112.078 35.2165 112.192 35.3564C112.31 35.4932 112.477 35.6169 112.695 35.7275L113.667 36.2109C114.165 36.4583 114.546 36.7448 114.81 37.0703C115.076 37.3926 115.21 37.7653 115.21 38.1885C115.21 38.8102 114.995 39.2839 114.565 39.6094C114.139 39.9349 113.514 40.0977 112.69 40.0977ZM119.214 40.0977C118.325 40.0977 117.638 39.8665 117.153 39.4043C116.668 38.9388 116.426 38.2715 116.426 37.4023C116.426 36.556 116.631 35.8984 117.041 35.4297C117.454 34.9609 118.035 34.7266 118.784 34.7266C119.507 34.7266 120.065 34.9414 120.459 35.3711C120.856 35.8008 121.055 36.4242 121.055 37.2412C121.055 37.4788 121.045 37.7018 121.025 37.9102H117.295V37.041H119.902C119.902 36.6471 119.805 36.3444 119.609 36.1328C119.414 35.9212 119.142 35.8154 118.794 35.8154C118.413 35.8154 118.117 35.9489 117.905 36.2158C117.694 36.4827 117.588 36.862 117.588 37.3535C117.588 37.8841 117.739 38.2894 118.042 38.5693C118.345 38.846 118.774 38.9844 119.331 38.9844C119.559 38.9844 119.782 38.973 120 38.9502C120.221 38.9242 120.446 38.89 120.674 38.8477L120.801 39.9609C120.482 40.0195 120.189 40.057 119.922 40.0732C119.655 40.0895 119.419 40.0977 119.214 40.0977ZM125.684 40.0977C124.834 40.0977 124.22 39.9251 123.843 39.5801C123.465 39.235 123.276 38.6833 123.276 37.9248V37.168H124.478V37.8271C124.478 38.2275 124.578 38.5189 124.78 38.7012C124.985 38.8835 125.319 38.9746 125.781 38.9746C125.934 38.9746 126.099 38.9665 126.274 38.9502C126.45 38.9307 126.65 38.9062 126.875 38.877L126.992 39.9805C126.774 40.0195 126.559 40.0488 126.348 40.0684C126.139 40.0879 125.918 40.0977 125.684 40.0977ZM123.276 37.5098V33.2617H124.478V37.5098H123.276ZM122.012 35.918V34.8242H126.797V35.918H122.012Z" fill="black"/>
<path d="M113.523 79.0742V76.4375H125.477V79.0742H113.523ZM113.523 84.9453V82.3086H125.477V84.9453H113.523Z" fill="black"/>
<path d="M136.026 66L134.171 59.0664H135.387L136.886 64.9746H136.974L138.473 59.0664H139.688L137.833 66H136.026ZM143.785 66.0488L143.692 64.5156L143.624 63.9395V62.7969C143.624 62.4941 143.505 62.2728 143.268 62.1328C143.03 61.9896 142.675 61.9115 142.203 61.8984L140.914 61.8643L141.012 60.7754L142.105 60.79C143.01 60.8031 143.683 60.9886 144.122 61.3467C144.562 61.7015 144.781 62.2207 144.781 62.9043V64.916L145.562 65.0234V66L143.785 66.0488ZM142.003 66.0977C141.456 66.0977 141.031 65.9642 140.729 65.6973C140.429 65.4303 140.279 65.0527 140.279 64.5645C140.279 63.998 140.481 63.5635 140.885 63.2607C141.288 62.958 141.86 62.8066 142.599 62.8066C142.892 62.8066 143.149 62.8229 143.37 62.8555C143.591 62.888 143.803 62.9385 144.005 63.0068L143.79 63.9053C143.578 63.8564 143.382 63.8288 143.199 63.8223C143.017 63.8125 142.826 63.8076 142.628 63.8076C141.86 63.8076 141.476 64.0339 141.476 64.4863C141.476 64.6849 141.542 64.8363 141.676 64.9404C141.812 65.0446 142.009 65.0967 142.267 65.0967C142.566 65.0967 142.817 65.043 143.019 64.9355C143.22 64.8249 143.372 64.6865 143.473 64.5205C143.574 64.3512 143.624 64.1771 143.624 63.998V63.5781L143.858 64.9062H143.443L143.614 64.75C143.608 65.0495 143.538 65.3001 143.404 65.502C143.274 65.7005 143.09 65.8503 142.853 65.9512C142.615 66.0488 142.332 66.0977 142.003 66.0977ZM149.42 66.0977C148.788 66.0977 148.333 65.9251 148.053 65.5801C147.776 65.235 147.638 64.6833 147.638 63.9248V58.6758H148.839V63.876C148.839 64.1136 148.863 64.3089 148.912 64.4619C148.961 64.6117 149.054 64.7223 149.19 64.7939C149.33 64.8656 149.537 64.9014 149.811 64.9014C150.09 64.9014 150.445 64.8395 150.875 64.7158L151.012 65.8926C150.742 65.9642 150.479 66.0163 150.226 66.0488C149.975 66.0814 149.706 66.0977 149.42 66.0977ZM146.148 59.7695V58.6758H147.726V59.7695H146.148ZM153.854 66.0977C153.339 66.0977 152.942 65.9365 152.662 65.6143C152.382 65.2887 152.242 64.8314 152.242 64.2422V60.8242H153.448V64.0469C153.448 64.3431 153.523 64.5726 153.673 64.7354C153.823 64.8949 154.029 64.9746 154.293 64.9746C154.632 64.9746 154.885 64.8558 155.055 64.6182C155.227 64.3773 155.313 63.9753 155.313 63.4121L155.577 65.0039H155.201C155.12 65.3555 154.96 65.6257 154.723 65.8145C154.488 66.0033 154.199 66.0977 153.854 66.0977ZM155.401 66.0488L155.313 64.8086V63.9004H156.52V64.916L157.232 65.0234V66L155.401 66.0488ZM155.313 64.5352V60.8242H156.52V64.2422L155.313 64.5352ZM160.792 66.0977C159.903 66.0977 159.216 65.8665 158.731 65.4043C158.246 64.9388 158.004 64.2715 158.004 63.4023C158.004 62.556 158.209 61.8984 158.619 61.4297C159.033 60.9609 159.614 60.7266 160.362 60.7266C161.085 60.7266 161.643 60.9414 162.037 61.3711C162.434 61.8008 162.633 62.4242 162.633 63.2412C162.633 63.4788 162.623 63.7018 162.604 63.9102H158.873V63.041H161.48C161.48 62.6471 161.383 62.3444 161.188 62.1328C160.992 61.9212 160.72 61.8154 160.372 61.8154C159.991 61.8154 159.695 61.9489 159.483 62.2158C159.272 62.4827 159.166 62.862 159.166 63.3535C159.166 63.8841 159.317 64.2894 159.62 64.5693C159.923 64.846 160.353 64.9844 160.909 64.9844C161.137 64.9844 161.36 64.973 161.578 64.9502C161.799 64.9242 162.024 64.89 162.252 64.8477L162.379 65.9609C162.06 66.0195 161.767 66.057 161.5 66.0732C161.233 66.0895 160.997 66.0977 160.792 66.0977Z" fill="black"/>
<path d="M178.567 39.25C178.76 39.5831 179.24 39.5831 179.433 39.25L182.031 34.75C182.224 34.4167 181.983 34 181.598 34H176.402C176.017 34 175.776 34.4167 175.969 34.75L178.567 39.25Z" fill="#D9D9D9" stroke="black"/>
</svg>
