<svg width="246" height="148" viewBox="0 0 246 148" fill="none" xmlns="http://www.w3.org/2000/svg">
<rect width="246" height="148" fill="#1E1E1E"/>
<rect x="-712" y="-321" width="1920" height="1080" fill="white"/>
<path d="M15 2.5H19C20.2728 2.5 21.6998 3.62377 22.1943 5.56641C24.6722 15.2991 33.4921 22.5 44 22.5C54.5079 22.5 63.3278 15.2991 65.8057 5.56641C66.3002 3.62377 67.7272 2.5 69 2.5H186C217.756 2.5 243.5 28.2436 243.5 60V113C243.5 119.898 237.885 125.5 230.977 125.5H228C223.75 125.5 220.828 128.924 219.96 132.333C218.032 139.904 211.167 145.5 203 145.5C194.833 145.5 187.968 139.904 186.04 132.333C185.172 128.924 182.25 125.5 178 125.5H60.0137C28.2566 125.5 2.5 99.7556 2.5 68V15C2.5 8.20418 7.92311 2.67484 14.6777 2.50391L15 2.5Z" fill="#D9D9D9" stroke="black" stroke-width="5"/>
<path d="M27.5 69H210.5C212.157 69 213.5 70.3431 213.5 72V89C213.5 90.6569 212.157 92 210.5 92H27.5C25.8431 92 24.5 90.6569 24.5 89V72C24.5 70.3431 25.8431 69 27.5 69Z" fill="#D9D9D9" stroke="black" stroke-width="2"/>
<path d="M25.0264 66L23.1709 59.0664H24.3867L25.8857 64.9746H25.9736L27.4727 59.0664H28.6885L26.833 66H25.0264ZM32.7852 66.0488L32.6924 64.5156L32.624 63.9395V62.7969C32.624 62.4941 32.5052 62.2728 32.2676 62.1328C32.0299 61.9896 31.6751 61.9115 31.2031 61.8984L29.9141 61.8643L30.0117 60.7754L31.1055 60.79C32.0104 60.8031 32.6826 60.9886 33.1221 61.3467C33.5615 61.7015 33.7812 62.2207 33.7812 62.9043V64.916L34.5625 65.0234V66L32.7852 66.0488ZM31.0029 66.0977C30.4561 66.0977 30.0312 65.9642 29.7285 65.6973C29.429 65.4303 29.2793 65.0527 29.2793 64.5645C29.2793 63.998 29.4811 63.5635 29.8848 63.2607C30.2884 62.958 30.8597 62.8066 31.5986 62.8066C31.8916 62.8066 32.1488 62.8229 32.3701 62.8555C32.5915 62.888 32.8031 62.9385 33.0049 63.0068L32.79 63.9053C32.5785 63.8564 32.3815 63.8288 32.1992 63.8223C32.0169 63.8125 31.8265 63.8076 31.6279 63.8076C30.8597 63.8076 30.4756 64.0339 30.4756 64.4863C30.4756 64.6849 30.5423 64.8363 30.6758 64.9404C30.8125 65.0446 31.0094 65.0967 31.2666 65.0967C31.5661 65.0967 31.8167 65.043 32.0186 64.9355C32.2204 64.8249 32.3717 64.6865 32.4727 64.5205C32.5736 64.3512 32.624 64.1771 32.624 63.998V63.5781L32.8584 64.9062H32.4434L32.6143 64.75C32.6077 65.0495 32.5378 65.3001 32.4043 65.502C32.2741 65.7005 32.0902 65.8503 31.8525 65.9512C31.6149 66.0488 31.3317 66.0977 31.0029 66.0977ZM38.4199 66.0977C37.7884 66.0977 37.3327 65.9251 37.0527 65.5801C36.776 65.235 36.6377 64.6833 36.6377 63.9248V58.6758H37.8389V63.876C37.8389 64.1136 37.8633 64.3089 37.9121 64.4619C37.9609 64.6117 38.0537 64.7223 38.1904 64.7939C38.3304 64.8656 38.5371 64.9014 38.8105 64.9014C39.0905 64.9014 39.4453 64.8395 39.875 64.7158L40.0117 65.8926C39.7415 65.9642 39.4795 66.0163 39.2256 66.0488C38.9749 66.0814 38.7064 66.0977 38.4199 66.0977ZM35.1484 59.7695V58.6758H36.7256V59.7695H35.1484ZM42.8535 66.0977C42.3392 66.0977 41.9421 65.9365 41.6621 65.6143C41.3822 65.2887 41.2422 64.8314 41.2422 64.2422V60.8242H42.4482V64.0469C42.4482 64.3431 42.5231 64.5726 42.6729 64.7354C42.8226 64.8949 43.0293 64.9746 43.293 64.9746C43.6315 64.9746 43.8854 64.8558 44.0547 64.6182C44.2272 64.3773 44.3135 63.9753 44.3135 63.4121L44.5771 65.0039H44.2012C44.1198 65.3555 43.9603 65.6257 43.7227 65.8145C43.4883 66.0033 43.1986 66.0977 42.8535 66.0977ZM44.4014 66.0488L44.3135 64.8086V63.9004H45.5195V64.916L46.2324 65.0234V66L44.4014 66.0488ZM44.3135 64.5352V60.8242H45.5195V64.2422L44.3135 64.5352ZM49.792 66.0977C48.9033 66.0977 48.2165 65.8665 47.7314 65.4043C47.2464 64.9388 47.0039 64.2715 47.0039 63.4023C47.0039 62.556 47.209 61.8984 47.6191 61.4297C48.0326 60.9609 48.6136 60.7266 49.3623 60.7266C50.085 60.7266 50.6432 60.9414 51.0371 61.3711C51.4342 61.8008 51.6328 62.4242 51.6328 63.2412C51.6328 63.4788 51.623 63.7018 51.6035 63.9102H47.873V63.041H50.4805C50.4805 62.6471 50.3828 62.3444 50.1875 62.1328C49.9922 61.9212 49.7204 61.8154 49.3721 61.8154C48.9912 61.8154 48.695 61.9489 48.4834 62.2158C48.2718 62.4827 48.166 62.862 48.166 63.3535C48.166 63.8841 48.3174 64.2894 48.6201 64.5693C48.9229 64.846 49.3525 64.9844 49.9092 64.9844C50.137 64.9844 50.36 64.973 50.5781 64.9502C50.7995 64.9242 51.0241 64.89 51.252 64.8477L51.3789 65.9609C51.0599 66.0195 50.7669 66.057 50.5 66.0732C50.2331 66.0895 49.9971 66.0977 49.792 66.0977Z" fill="black"/>
<path d="M125.93 22.0977C124.191 22.0977 123.322 20.9258 123.322 18.582C123.322 16.1732 124.191 14.9688 125.93 14.9688C127.668 14.9688 128.537 16.1732 128.537 18.582C128.537 20.9258 127.668 22.0977 125.93 22.0977ZM125.93 20.999C126.848 20.999 127.307 20.1934 127.307 18.582C127.307 16.9056 126.848 16.0674 125.93 16.0674C125.012 16.0674 124.553 16.9056 124.553 18.582C124.553 20.1934 125.012 20.999 125.93 20.999ZM129.631 24.2461V16.8242H130.739L130.837 17.918V24.2461H129.631ZM132.253 22.0977C131.879 22.0977 131.577 22.0098 131.35 21.834C131.122 21.6582 130.985 21.401 130.939 21.0625H130.485L130.837 19.4854C130.837 19.9997 130.923 20.3805 131.096 20.6279C131.271 20.8753 131.553 20.999 131.94 20.999C132.315 20.999 132.598 20.8672 132.79 20.6035C132.982 20.3398 133.078 19.9508 133.078 19.4365C133.078 18.9157 132.98 18.5169 132.785 18.2402C132.59 17.9635 132.308 17.8252 131.94 17.8252C131.576 17.8252 131.301 17.9505 131.115 18.2012C130.93 18.4486 130.837 18.8294 130.837 19.3438L130.515 17.7617H130.905C130.961 17.4232 131.099 17.166 131.32 16.9902C131.542 16.8145 131.851 16.7266 132.248 16.7266C132.909 16.7266 133.415 16.9593 133.767 17.4248C134.121 17.8903 134.299 18.5609 134.299 19.4365C134.299 20.2992 134.121 20.9583 133.767 21.4141C133.415 21.8698 132.91 22.0977 132.253 22.0977ZM138.073 22.0977C137.185 22.0977 136.498 21.8665 136.013 21.4043C135.528 20.9388 135.285 20.2715 135.285 19.4023C135.285 18.556 135.49 17.8984 135.9 17.4297C136.314 16.9609 136.895 16.7266 137.644 16.7266C138.366 16.7266 138.924 16.9414 139.318 17.3711C139.715 17.8008 139.914 18.4242 139.914 19.2412C139.914 19.4788 139.904 19.7018 139.885 19.9102H136.154V19.041H138.762C138.762 18.6471 138.664 18.3444 138.469 18.1328C138.273 17.9212 138.002 17.8154 137.653 17.8154C137.272 17.8154 136.976 17.9489 136.765 18.2158C136.553 18.4827 136.447 18.862 136.447 19.3535C136.447 19.8841 136.599 20.2894 136.901 20.5693C137.204 20.846 137.634 20.9844 138.19 20.9844C138.418 20.9844 138.641 20.973 138.859 20.9502C139.081 20.9242 139.305 20.89 139.533 20.8477L139.66 21.9609C139.341 22.0195 139.048 22.057 138.781 22.0732C138.514 22.0895 138.278 22.0977 138.073 22.0977ZM143.239 19.7734L142.937 18.0547H143.366C143.422 17.1693 143.876 16.7266 144.729 16.7266C145.236 16.7266 145.617 16.8958 145.871 17.2344C146.125 17.5729 146.252 18.084 146.252 18.7676H145.051C145.051 18.4323 144.994 18.1914 144.88 18.0449C144.769 17.8984 144.59 17.8252 144.343 17.8252C143.972 17.8252 143.695 17.9945 143.513 18.333C143.33 18.6715 143.239 19.1517 143.239 19.7734ZM140.92 22V20.9551H144.475V22H140.92ZM142.038 22V16.8242H143.044L143.239 18.3086V22H142.038ZM141.115 17.8691V16.8242H142.976L143.073 17.8691H141.115ZM150.363 22.0488L150.271 20.5156L150.202 19.9395V18.7969C150.202 18.4941 150.083 18.2728 149.846 18.1328C149.608 17.9896 149.253 17.9115 148.781 17.8984L147.492 17.8643L147.59 16.7754L148.684 16.79C149.589 16.8031 150.261 16.9886 150.7 17.3467C151.14 17.7015 151.359 18.2207 151.359 18.9043V20.916L152.141 21.0234V22L150.363 22.0488ZM148.581 22.0977C148.034 22.0977 147.609 21.9642 147.307 21.6973C147.007 21.4303 146.857 21.0527 146.857 20.5645C146.857 19.998 147.059 19.5635 147.463 19.2607C147.867 18.958 148.438 18.8066 149.177 18.8066C149.47 18.8066 149.727 18.8229 149.948 18.8555C150.17 18.888 150.381 18.9385 150.583 19.0068L150.368 19.9053C150.157 19.8564 149.96 19.8288 149.777 19.8223C149.595 19.8125 149.405 19.8076 149.206 19.8076C148.438 19.8076 148.054 20.0339 148.054 20.4863C148.054 20.6849 148.12 20.8363 148.254 20.9404C148.391 21.0446 148.588 21.0967 148.845 21.0967C149.144 21.0967 149.395 21.043 149.597 20.9355C149.799 20.8249 149.95 20.6865 150.051 20.5205C150.152 20.3512 150.202 20.1771 150.202 19.998V19.5781L150.437 20.9062H150.021L150.192 20.75C150.186 21.0495 150.116 21.3001 149.982 21.502C149.852 21.7005 149.668 21.8503 149.431 21.9512C149.193 22.0488 148.91 22.0977 148.581 22.0977ZM156.262 22.0977C155.412 22.0977 154.799 21.9251 154.421 21.5801C154.043 21.235 153.854 20.6833 153.854 19.9248V19.168H155.056V19.8271C155.056 20.2275 155.157 20.5189 155.358 20.7012C155.563 20.8835 155.897 20.9746 156.359 20.9746C156.512 20.9746 156.677 20.9665 156.853 20.9502C157.028 20.9307 157.229 20.9062 157.453 20.877L157.57 21.9805C157.352 22.0195 157.137 22.0488 156.926 22.0684C156.717 22.0879 156.496 22.0977 156.262 22.0977ZM153.854 19.5098V15.2617H155.056V19.5098H153.854ZM152.59 17.918V16.8242H157.375V17.918H152.59ZM160.827 22V17.1172H162.028V22H160.827ZM158.889 22V20.9062H160.925V22H158.889ZM161.931 22V20.9062H163.586V22H161.931ZM159.182 17.918V16.8242H162.028V17.918H159.182ZM161.379 16.0771C161.148 16.0771 160.957 16.0023 160.808 15.8525C160.658 15.7028 160.583 15.5124 160.583 15.2812C160.583 15.0501 160.658 14.8597 160.808 14.71C160.957 14.5602 161.148 14.4854 161.379 14.4854C161.61 14.4854 161.8 14.5602 161.95 14.71C162.1 14.8597 162.175 15.0501 162.175 15.2812C162.175 15.5124 162.1 15.7028 161.95 15.8525C161.8 16.0023 161.61 16.0771 161.379 16.0771ZM166.945 22.0977C166.213 22.0977 165.643 21.8633 165.236 21.3945C164.833 20.9258 164.631 20.265 164.631 19.4121C164.631 18.556 164.833 17.8952 165.236 17.4297C165.643 16.9609 166.213 16.7266 166.945 16.7266C167.681 16.7266 168.251 16.9609 168.654 17.4297C169.058 17.8952 169.26 18.556 169.26 19.4121C169.26 20.265 169.058 20.9258 168.654 21.3945C168.251 21.8633 167.681 22.0977 166.945 22.0977ZM166.945 20.9746C167.29 20.9746 167.556 20.8395 167.741 20.5693C167.927 20.2959 168.02 19.9102 168.02 19.4121C168.02 18.9108 167.925 18.5251 167.736 18.2549C167.551 17.9847 167.287 17.8496 166.945 17.8496C166.604 17.8496 166.338 17.9847 166.149 18.2549C165.964 18.5251 165.871 18.9108 165.871 19.4121C165.871 19.9102 165.964 20.2959 166.149 20.5693C166.338 20.8395 166.604 20.9746 166.945 20.9746ZM173.757 22V18.8262C173.757 18.5137 173.685 18.2728 173.542 18.1035C173.399 17.9342 173.197 17.8496 172.937 17.8496C172.214 17.8496 171.853 18.3281 171.853 19.2852L171.55 17.7617H171.97C172.009 17.4134 172.129 17.1546 172.331 16.9854C172.536 16.8128 172.84 16.7266 173.244 16.7266C173.791 16.7266 174.214 16.8926 174.514 17.2246C174.813 17.5566 174.963 18.0254 174.963 18.6309V22H173.757ZM170.646 22V16.8242H171.73L171.853 17.918V22H170.646ZM185.559 22.0977C184.709 22.0977 184.095 21.9251 183.718 21.5801C183.34 21.235 183.151 20.6833 183.151 19.9248V19.168H184.353V19.8271C184.353 20.2275 184.453 20.5189 184.655 20.7012C184.86 20.8835 185.194 20.9746 185.656 20.9746C185.809 20.9746 185.974 20.9665 186.149 20.9502C186.325 20.9307 186.525 20.9062 186.75 20.877L186.867 21.9805C186.649 22.0195 186.434 22.0488 186.223 22.0684C186.014 22.0879 185.793 22.0977 185.559 22.0977ZM183.151 19.5098V15.2617H184.353V19.5098H183.151ZM181.887 17.918V16.8242H186.672V17.918H181.887ZM187.771 24.3438L187.722 23.2842L188.581 23.1865C188.9 23.1475 189.174 23.0612 189.401 22.9277C189.629 22.7943 189.825 22.5957 189.987 22.332C190.15 22.0684 190.292 21.7233 190.412 21.2969L191.677 16.8242H192.946L191.477 21.541C191.281 22.1628 191.058 22.6624 190.808 23.04C190.56 23.4176 190.266 23.7008 189.924 23.8896C189.582 24.0785 189.174 24.1973 188.698 24.2461L187.771 24.3438ZM189.538 22L187.673 16.8242H188.942L190.388 21.0137H190.593V22H189.538ZM194.084 24.2461V16.8242H195.192L195.29 17.918V24.2461H194.084ZM196.706 22.0977C196.332 22.0977 196.031 22.0098 195.803 21.834C195.575 21.6582 195.438 21.401 195.393 21.0625H194.938L195.29 19.4854C195.29 19.9997 195.376 20.3805 195.549 20.6279C195.725 20.8753 196.006 20.999 196.394 20.999C196.768 20.999 197.051 20.8672 197.243 20.6035C197.435 20.3398 197.531 19.9508 197.531 19.4365C197.531 18.9157 197.434 18.5169 197.238 18.2402C197.043 17.9635 196.761 17.8252 196.394 17.8252C196.029 17.8252 195.754 17.9505 195.568 18.2012C195.383 18.4486 195.29 18.8294 195.29 19.3438L194.968 17.7617H195.358C195.414 17.4232 195.552 17.166 195.773 16.9902C195.995 16.8145 196.304 16.7266 196.701 16.7266C197.362 16.7266 197.868 16.9593 198.22 17.4248C198.575 17.8903 198.752 18.5609 198.752 19.4365C198.752 20.2992 198.575 20.9583 198.22 21.4141C197.868 21.8698 197.364 22.0977 196.706 22.0977ZM202.526 22.0977C201.638 22.0977 200.951 21.8665 200.466 21.4043C199.981 20.9388 199.738 20.2715 199.738 19.4023C199.738 18.556 199.943 17.8984 200.354 17.4297C200.767 16.9609 201.348 16.7266 202.097 16.7266C202.819 16.7266 203.378 16.9414 203.771 17.3711C204.169 17.8008 204.367 18.4242 204.367 19.2412C204.367 19.4788 204.357 19.7018 204.338 19.9102H200.607V19.041H203.215C203.215 18.6471 203.117 18.3444 202.922 18.1328C202.727 17.9212 202.455 17.8154 202.106 17.8154C201.726 17.8154 201.429 17.9489 201.218 18.2158C201.006 18.4827 200.9 18.862 200.9 19.3535C200.9 19.8841 201.052 20.2894 201.354 20.5693C201.657 20.846 202.087 20.9844 202.644 20.9844C202.871 20.9844 203.094 20.973 203.312 20.9502C203.534 20.9242 203.758 20.89 203.986 20.8477L204.113 21.9609C203.794 22.0195 203.501 22.057 203.234 22.0732C202.967 22.0895 202.731 22.0977 202.526 22.0977Z" fill="black"/>
<rect x="124" y="25" width="80" height="23" rx="3" fill="#D9D9D9" stroke="black" stroke-width="2"/>
<path d="M128.806 40L128.049 33.0664H129.221L129.709 38.999H129.831L130.397 34.8242H131.472L131.096 36.0107H130.9L130.461 40H128.806ZM131.398 40L130.959 36.0107H130.764L130.397 34.8242H131.472L132.028 38.999H132.15L132.639 33.0664H133.811L133.054 40H131.398ZM137.741 40V36.7773C137.741 36.4714 137.67 36.237 137.526 36.0742C137.383 35.9082 137.181 35.8252 136.921 35.8252C136.198 35.8252 135.837 36.2956 135.837 37.2363L135.534 35.7617H135.954C135.993 35.4134 136.114 35.1546 136.315 34.9854C136.521 34.8128 136.825 34.7266 137.229 34.7266C137.775 34.7266 138.199 34.8926 138.498 35.2246C138.798 35.5566 138.947 36.0254 138.947 36.6309V40H137.741ZM134.631 40V32.6758H135.837V40H134.631ZM142.39 40V35.1172H143.591V40H142.39ZM140.451 40V38.9062H142.487V40H140.451ZM143.493 40V38.9062H145.148V40H143.493ZM140.744 35.918V34.8242H143.591V35.918H140.744ZM142.941 34.0771C142.71 34.0771 142.52 34.0023 142.37 33.8525C142.22 33.7028 142.146 33.5124 142.146 33.2812C142.146 33.0501 142.22 32.8597 142.37 32.71C142.52 32.5602 142.71 32.4854 142.941 32.4854C143.173 32.4854 143.363 32.5602 143.513 32.71C143.662 32.8597 143.737 33.0501 143.737 33.2812C143.737 33.5124 143.662 33.7028 143.513 33.8525C143.363 34.0023 143.173 34.0771 142.941 34.0771ZM149.279 40.0977C148.648 40.0977 148.192 39.9251 147.912 39.5801C147.635 39.235 147.497 38.6833 147.497 37.9248V32.6758H148.698V37.876C148.698 38.1136 148.723 38.3089 148.771 38.4619C148.82 38.6117 148.913 38.7223 149.05 38.7939C149.19 38.8656 149.396 38.9014 149.67 38.9014C149.95 38.9014 150.305 38.8395 150.734 38.7158L150.871 39.8926C150.601 39.9642 150.339 40.0163 150.085 40.0488C149.834 40.0814 149.566 40.0977 149.279 40.0977ZM146.008 33.7695V32.6758H147.585V33.7695H146.008ZM154.792 40.0977C153.903 40.0977 153.216 39.8665 152.731 39.4043C152.246 38.9388 152.004 38.2715 152.004 37.4023C152.004 36.556 152.209 35.8984 152.619 35.4297C153.033 34.9609 153.614 34.7266 154.362 34.7266C155.085 34.7266 155.643 34.9414 156.037 35.3711C156.434 35.8008 156.633 36.4242 156.633 37.2412C156.633 37.4788 156.623 37.7018 156.604 37.9102H152.873V37.041H155.48C155.48 36.6471 155.383 36.3444 155.188 36.1328C154.992 35.9212 154.72 35.8154 154.372 35.8154C153.991 35.8154 153.695 35.9489 153.483 36.2158C153.272 36.4827 153.166 36.862 153.166 37.3535C153.166 37.8841 153.317 38.2894 153.62 38.5693C153.923 38.846 154.353 38.9844 154.909 38.9844C155.137 38.9844 155.36 38.973 155.578 38.9502C155.799 38.9242 156.024 38.89 156.252 38.8477L156.379 39.9609C156.06 40.0195 155.767 40.057 155.5 40.0732C155.233 40.0895 154.997 40.0977 154.792 40.0977Z" fill="black"/>
<path d="M196.567 39.25C196.76 39.5831 197.24 39.5831 197.433 39.25L200.031 34.75C200.224 34.4167 199.983 34 199.598 34H194.402C194.017 34 193.776 34.4167 193.969 34.75L196.567 39.25Z" fill="#D9D9D9" stroke="black"/>
</svg>
