<svg width="246" height="148" viewBox="0 0 246 148" fill="none" xmlns="http://www.w3.org/2000/svg">
<path d="M15 2.5H19C20.2728 2.5 21.6998 3.62377 22.1943 5.56641C24.6722 15.2991 33.4921 22.5 44 22.5C54.5079 22.5 63.3278 15.2991 65.8057 5.56641C66.3002 3.62377 67.7272 2.5 69 2.5H186C217.756 2.5 243.5 28.2436 243.5 60V68C243.5 99.7556 217.743 125.5 185.986 125.5H69C64.75 125.5 61.8279 128.924 60.96 132.333C59.0325 139.904 52.1667 145.5 44 145.5C35.8333 145.5 28.9675 139.904 27.04 132.333C26.1721 128.924 23.25 125.5 19 125.5H15.0234C8.11479 125.5 2.5 119.898 2.5 113V15C2.5 8.20418 7.92311 2.67484 14.6777 2.50391L15 2.5Z" fill="#D9D9D9" stroke="black" stroke-width="5"/>
</svg>
