<svg width="246" height="65" viewBox="0 0 246 65" fill="none" xmlns="http://www.w3.org/2000/svg">
<path d="M194 2.5H68C66.7272 2.5 65.3002 3.62377 64.8057 5.56641C62.3278 15.2991 53.5079 22.5 43 22.5C32.4921 22.5 23.6722 15.2991 21.1943 5.56641C20.6998 3.62377 19.2728 2.5 18 2.5H13C7.20101 2.5 2.5 7.20101 2.5 13C2.5 40.3381 24.6619 62.5 52 62.5V65C52 62.5823 52.0001 62.5026 52.001 62.5H233C238.799 62.5 243.5 57.799 243.5 52C243.5 24.8754 221.683 2.84638 194.64 2.50391L194 2.5Z" fill="#D9D9D9" stroke="black" stroke-width="5"/>
</svg>
