<svg width="246" height="85" viewBox="0 0 246 85" fill="none" xmlns="http://www.w3.org/2000/svg">
<path d="M52 2.5H178C179.273 2.5 180.7 3.62378 181.194 5.56641C183.672 15.2991 192.492 22.5 203 22.5C213.508 22.5 222.328 15.2991 224.806 5.56641C225.3 3.62377 226.727 2.5 228 2.5H233C238.799 2.5 243.5 7.20101 243.5 13C243.5 40.3381 221.338 62.5 194 62.5H69C64.75 62.5 61.8279 65.9235 60.96 69.333C59.0325 76.9036 52.1667 82.5 44 82.5C35.8333 82.5 28.9675 76.9036 27.04 69.333C26.1721 65.9235 23.25 62.5 19 62.5H13C7.20101 62.5 2.5 57.799 2.5 52C2.5 24.8754 24.317 2.84638 51.3604 2.50391L52 2.5Z" fill="#D9D9D9" stroke="black" stroke-width="5"/>
</svg>
