<svg width="52" height="52" viewBox="0 0 52 52" fill="none" xmlns="http://www.w3.org/2000/svg">
<g filter="url(#filter0_d_44_80)">
<path d="M40.527 1.17148C42.089 -0.390527 44.6221 -0.390452 46.1842 1.17148C47.7463 2.73356 47.7463 5.2666 46.1842 6.8287L31.3346 21.6773L46.1842 36.5269C47.7463 38.089 47.7463 40.6221 46.1842 42.1842C44.6221 43.7462 42.0891 43.7463 40.527 42.1842L25.6774 27.3346L10.8287 42.1842C9.26663 43.7462 6.73358 43.7462 5.17151 42.1842C3.60959 40.6221 3.60955 38.089 5.17151 36.5269L20.0201 21.6773L5.17151 6.8287C3.60964 5.2666 3.60951 2.73351 5.17151 1.17148C6.73353 -0.390548 9.26662 -0.390405 10.8287 1.17148L25.6774 16.0201L40.527 1.17148Z" fill="white"/>
</g>
<defs>
<filter id="filter0_d_44_80" x="0" y="0" width="51.3558" height="51.3557" filterUnits="userSpaceOnUse" color-interpolation-filters="sRGB">
<feFlood flood-opacity="0" result="BackgroundImageFix"/>
<feColorMatrix in="SourceAlpha" type="matrix" values="0 0 0 0 0 0 0 0 0 0 0 0 0 0 0 0 0 0 127 0" result="hardAlpha"/>
<feOffset dy="4"/>
<feGaussianBlur stdDeviation="2"/>
<feComposite in2="hardAlpha" operator="out"/>
<feColorMatrix type="matrix" values="0 0 0 0 0 0 0 0 0 0 0 0 0 0 0 0 0 0 0.25 0"/>
<feBlend mode="normal" in2="BackgroundImageFix" result="effect1_dropShadow_44_80"/>
<feBlend mode="normal" in="SourceGraphic" in2="effect1_dropShadow_44_80" result="shape"/>
</filter>
</defs>
</svg>
