<svg width="102" height="77" viewBox="0 0 102 77" fill="none" xmlns="http://www.w3.org/2000/svg">
<g filter="url(#filter0_d_44_81)">
<path d="M19.9932 51.0898V58.2305L16.9033 61.3496H7.63281V69H4.15332V48H16.9336L19.9932 51.0898ZM56.8242 51.0898V57.54L54.6338 59.7305L56.9443 62.2197V69H53.4639V63.0596L51.3037 60.6904H44.4639V69H40.9844V48H53.7637L56.8242 51.0898ZM95.5537 51.3896V65.6104L92.1641 69H81.7842L78.3936 65.6104V51.3896L81.7842 48H92.1641L95.5537 51.3896ZM81.874 52.6797V64.3203L83.584 66H90.3633L92.0742 64.3203V52.6797L90.3633 51H83.584L81.874 52.6797ZM7.63281 58.4102H15.373L16.5732 57.21V52.1396L15.373 50.9404H7.63281V58.4102ZM44.4639 57.8096H52.2041L53.4043 56.6104V52.1396L52.2041 50.9404H44.4639V57.8096ZM19.7051 26.9102V32.79L18.415 34.0801L20.6348 36.2998V41.8496L17.4844 45H4.07422V24H16.7949L19.7051 26.9102ZM27.418 42.0303H37.9775V45H23.9375V24H27.418V42.0303ZM56.9404 27.3896V41.6104L53.5508 45H43.1709L39.7803 41.6104V27.3896L43.1709 24H53.5508L56.9404 27.3896ZM77.1123 27.3301V30.0898H73.6318V28.5596L72.042 27H65.7422L64.0322 28.6797V40.3203L65.7422 42H72.042L73.6318 40.4404V38.9102H77.1123V41.6699L73.7822 45H63.9424L60.5518 41.6104V27.3896L63.9424 24H73.7822L77.1123 27.3301ZM83.7559 33.0303H87.5059L92.6953 24H96.5654L90.4756 34.4697L97.0762 45H93.1162L87.5059 36.0303H83.7559V45H80.2754V24H83.7559V33.0303ZM7.46484 42.0596H15.7744L17.2148 40.6201V37.2598L15.7744 35.8496H7.46484V42.0596ZM43.2607 28.6797V40.3203L44.9707 42H51.75L53.4609 40.3203V28.6797L51.75 27H44.9707L43.2607 28.6797ZM7.46484 33.0303H15.0547L16.2842 31.7998V28.1396L15.085 26.9404H7.46484V33.0303ZM20.5596 3.33008V6.08984H17.0801V4.55957L15.4893 3H9.18945L7.47949 4.67969V16.3203L9.18945 18H15.4893L17.0801 16.4404V14.9102H20.5596V17.6699L17.2295 21H7.38965L4 17.6104V3.38965L7.38965 0H17.2295L20.5596 3.33008ZM46.1338 3.38965V17.6104L42.7432 21H32.3633L28.9736 17.6104V3.38965L32.3633 0H42.7432L46.1338 3.38965ZM72.0947 3.50977V17.4902L68.585 21H55.5947V0H68.585L72.0947 3.50977ZM96.1758 2.96973H85.0156V8.96973H95.3057V11.9102H85.0156V18.0303H96.1758V21H81.5352V0H96.1758V2.96973ZM32.4531 4.67969V16.3203L34.1631 18H40.9434L42.6533 16.3203V4.67969L40.9434 3H34.1631L32.4531 4.67969ZM59.0752 18H66.9053L68.6152 16.3203V4.67969L66.9053 3H59.0752V18Z" fill="white"/>
</g>
<defs>
<filter id="filter0_d_44_81" x="0" y="0" width="101.076" height="77" filterUnits="userSpaceOnUse" color-interpolation-filters="sRGB">
<feFlood flood-opacity="0" result="BackgroundImageFix"/>
<feColorMatrix in="SourceAlpha" type="matrix" values="0 0 0 0 0 0 0 0 0 0 0 0 0 0 0 0 0 0 127 0" result="hardAlpha"/>
<feOffset dy="4"/>
<feGaussianBlur stdDeviation="2"/>
<feComposite in2="hardAlpha" operator="out"/>
<feColorMatrix type="matrix" values="0 0 0 0 0 0 0 0 0 0 0 0 0 0 0 0 0 0 0.25 0"/>
<feBlend mode="normal" in2="BackgroundImageFix" result="effect1_dropShadow_44_81"/>
<feBlend mode="normal" in="SourceGraphic" in2="effect1_dropShadow_44_81" result="shape"/>
</filter>
</defs>
</svg>
