<svg width="52" height="53" viewBox="0 0 52 53" fill="none" xmlns="http://www.w3.org/2000/svg">
<g filter="url(#filter0_d_44_75)">
<path d="M44 37C46.2091 37 48 38.7909 48 41C48 43.2091 46.2091 45 44 45H8C5.79086 45 4 43.2091 4 41C4 38.7909 5.79086 37 8 37H44ZM29 0C30.6569 0 32 1.34315 32 3V18H40.7773C42.6231 18 43.4564 20.3923 42.0361 21.6133L27.0117 34.5293C26.2818 35.1568 25.2241 35.1567 24.4941 34.5293L9.46875 21.6133C8.04865 20.3923 8.88283 18 10.7285 18H20V3C20 1.34315 21.3431 0 23 0H29Z" fill="white"/>
</g>
<defs>
<filter id="filter0_d_44_75" x="0" y="0" width="52" height="53" filterUnits="userSpaceOnUse" color-interpolation-filters="sRGB">
<feFlood flood-opacity="0" result="BackgroundImageFix"/>
<feColorMatrix in="SourceAlpha" type="matrix" values="0 0 0 0 0 0 0 0 0 0 0 0 0 0 0 0 0 0 127 0" result="hardAlpha"/>
<feOffset dy="4"/>
<feGaussianBlur stdDeviation="2"/>
<feComposite in2="hardAlpha" operator="out"/>
<feColorMatrix type="matrix" values="0 0 0 0 0 0 0 0 0 0 0 0 0 0 0 0 0 0 0.25 0"/>
<feBlend mode="normal" in2="BackgroundImageFix" result="effect1_dropShadow_44_75"/>
<feBlend mode="normal" in="SourceGraphic" in2="effect1_dropShadow_44_75" result="shape"/>
</filter>
</defs>
</svg>
